<?xml version="1.0" encoding="utf-8" standalone="no"?>
<!DOCTYPE svg PUBLIC "-//W3C//DTD SVG 1.1//EN"
  "http://www.w3.org/Graphics/SVG/1.1/DTD/svg11.dtd">
<svg xmlns:xlink="http://www.w3.org/1999/xlink" width="1081.85pt" height="741.697344pt" viewBox="0 0 1081.85 741.697344" xmlns="http://www.w3.org/2000/svg" version="1.1">
 <metadata>
  <rdf:RDF xmlns:dc="http://purl.org/dc/elements/1.1/" xmlns:cc="http://creativecommons.org/ns#" xmlns:rdf="http://www.w3.org/1999/02/22-rdf-syntax-ns#">
   <cc:Work>
    <dc:type rdf:resource="http://purl.org/dc/dcmitype/StillImage"/>
    <dc:date>2023-01-10T11:49:48.545683</dc:date>
    <dc:format>image/svg+xml</dc:format>
    <dc:creator>
     <cc:Agent>
      <dc:title>Matplotlib v3.5.2, https://matplotlib.org/</dc:title>
     </cc:Agent>
    </dc:creator>
   </cc:Work>
  </rdf:RDF>
 </metadata>
 <defs>
  <style type="text/css">*{stroke-linejoin: round; stroke-linecap: butt}</style>
 </defs>
 <g id="figure_1">
  <g id="patch_1">
   <path d="M 0 741.697344 
L 1081.85 741.697344 
L 1081.85 0 
L 0 0 
z
" style="fill: #ffffff"/>
  </g>
  <g id="axes_1">
   <g id="patch_2">
    <path d="M 65.21 696.876719 
L 1067.45 696.876719 
L 1067.45 55.356719 
L 65.21 55.356719 
z
" style="fill: #ffffff"/>
   </g>
   <g id="matplotlib.axis_1">
    <g id="xtick_1">
     <g id="line2d_1">
      <path d="M 110.766364 696.876719 
L 110.766364 55.356719 
" clip-path="url(#p924843052d)" style="fill: none; stroke: #a5a5a5; stroke-width: 0.35"/>
     </g>
     <g id="line2d_2">
      <defs>
       <path id="m4d212b789c" d="M 0 0 
L 0 5 
" style="stroke: #000000; stroke-width: 0.8"/>
      </defs>
      <g>
       <use xlink:href="#m4d212b789c" x="110.766364" y="696.876719" style="stroke: #000000; stroke-width: 0.8"/>
      </g>
     </g>
     <g id="text_1">
      <!-- 2010 -->
      <g transform="translate(87.861364 723.553906)scale(0.18 -0.18)">
       <defs>
        <path id="DejaVuSans-32" d="M 1228 531 
L 3431 531 
L 3431 0 
L 469 0 
L 469 531 
Q 828 903 1448 1529 
Q 2069 2156 2228 2338 
Q 2531 2678 2651 2914 
Q 2772 3150 2772 3378 
Q 2772 3750 2511 3984 
Q 2250 4219 1831 4219 
Q 1534 4219 1204 4116 
Q 875 4013 500 3803 
L 500 4441 
Q 881 4594 1212 4672 
Q 1544 4750 1819 4750 
Q 2544 4750 2975 4387 
Q 3406 4025 3406 3419 
Q 3406 3131 3298 2873 
Q 3191 2616 2906 2266 
Q 2828 2175 2409 1742 
Q 1991 1309 1228 531 
z
" transform="scale(0.015625)"/>
        <path id="DejaVuSans-30" d="M 2034 4250 
Q 1547 4250 1301 3770 
Q 1056 3291 1056 2328 
Q 1056 1369 1301 889 
Q 1547 409 2034 409 
Q 2525 409 2770 889 
Q 3016 1369 3016 2328 
Q 3016 3291 2770 3770 
Q 2525 4250 2034 4250 
z
M 2034 4750 
Q 2819 4750 3233 4129 
Q 3647 3509 3647 2328 
Q 3647 1150 3233 529 
Q 2819 -91 2034 -91 
Q 1250 -91 836 529 
Q 422 1150 422 2328 
Q 422 3509 836 4129 
Q 1250 4750 2034 4750 
z
" transform="scale(0.015625)"/>
        <path id="DejaVuSans-31" d="M 794 531 
L 1825 531 
L 1825 4091 
L 703 3866 
L 703 4441 
L 1819 4666 
L 2450 4666 
L 2450 531 
L 3481 531 
L 3481 0 
L 794 0 
L 794 531 
z
" transform="scale(0.015625)"/>
       </defs>
       <use xlink:href="#DejaVuSans-32"/>
       <use xlink:href="#DejaVuSans-30" x="63.623047"/>
       <use xlink:href="#DejaVuSans-31" x="127.246094"/>
       <use xlink:href="#DejaVuSans-30" x="190.869141"/>
      </g>
     </g>
    </g>
    <g id="xtick_2">
     <g id="line2d_3">
      <path d="M 201.879091 696.876719 
L 201.879091 55.356719 
" clip-path="url(#p924843052d)" style="fill: none; stroke: #a5a5a5; stroke-width: 0.35"/>
     </g>
     <g id="line2d_4">
      <g>
       <use xlink:href="#m4d212b789c" x="201.879091" y="696.876719" style="stroke: #000000; stroke-width: 0.8"/>
      </g>
     </g>
     <g id="text_2">
      <!-- 2011 -->
      <g transform="translate(178.974091 723.553906)scale(0.18 -0.18)">
       <use xlink:href="#DejaVuSans-32"/>
       <use xlink:href="#DejaVuSans-30" x="63.623047"/>
       <use xlink:href="#DejaVuSans-31" x="127.246094"/>
       <use xlink:href="#DejaVuSans-31" x="190.869141"/>
      </g>
     </g>
    </g>
    <g id="xtick_3">
     <g id="line2d_5">
      <path d="M 292.991818 696.876719 
L 292.991818 55.356719 
" clip-path="url(#p924843052d)" style="fill: none; stroke: #a5a5a5; stroke-width: 0.35"/>
     </g>
     <g id="line2d_6">
      <g>
       <use xlink:href="#m4d212b789c" x="292.991818" y="696.876719" style="stroke: #000000; stroke-width: 0.8"/>
      </g>
     </g>
     <g id="text_3">
      <!-- 2012 -->
      <g transform="translate(270.086818 723.553906)scale(0.18 -0.18)">
       <use xlink:href="#DejaVuSans-32"/>
       <use xlink:href="#DejaVuSans-30" x="63.623047"/>
       <use xlink:href="#DejaVuSans-31" x="127.246094"/>
       <use xlink:href="#DejaVuSans-32" x="190.869141"/>
      </g>
     </g>
    </g>
    <g id="xtick_4">
     <g id="line2d_7">
      <path d="M 384.104545 696.876719 
L 384.104545 55.356719 
" clip-path="url(#p924843052d)" style="fill: none; stroke: #a5a5a5; stroke-width: 0.35"/>
     </g>
     <g id="line2d_8">
      <g>
       <use xlink:href="#m4d212b789c" x="384.104545" y="696.876719" style="stroke: #000000; stroke-width: 0.8"/>
      </g>
     </g>
     <g id="text_4">
      <!-- 2013 -->
      <g transform="translate(361.199545 723.553906)scale(0.18 -0.18)">
       <defs>
        <path id="DejaVuSans-33" d="M 2597 2516 
Q 3050 2419 3304 2112 
Q 3559 1806 3559 1356 
Q 3559 666 3084 287 
Q 2609 -91 1734 -91 
Q 1441 -91 1130 -33 
Q 819 25 488 141 
L 488 750 
Q 750 597 1062 519 
Q 1375 441 1716 441 
Q 2309 441 2620 675 
Q 2931 909 2931 1356 
Q 2931 1769 2642 2001 
Q 2353 2234 1838 2234 
L 1294 2234 
L 1294 2753 
L 1863 2753 
Q 2328 2753 2575 2939 
Q 2822 3125 2822 3475 
Q 2822 3834 2567 4026 
Q 2313 4219 1838 4219 
Q 1578 4219 1281 4162 
Q 984 4106 628 3988 
L 628 4550 
Q 988 4650 1302 4700 
Q 1616 4750 1894 4750 
Q 2613 4750 3031 4423 
Q 3450 4097 3450 3541 
Q 3450 3153 3228 2886 
Q 3006 2619 2597 2516 
z
" transform="scale(0.015625)"/>
       </defs>
       <use xlink:href="#DejaVuSans-32"/>
       <use xlink:href="#DejaVuSans-30" x="63.623047"/>
       <use xlink:href="#DejaVuSans-31" x="127.246094"/>
       <use xlink:href="#DejaVuSans-33" x="190.869141"/>
      </g>
     </g>
    </g>
    <g id="xtick_5">
     <g id="line2d_9">
      <path d="M 475.217273 696.876719 
L 475.217273 55.356719 
" clip-path="url(#p924843052d)" style="fill: none; stroke: #a5a5a5; stroke-width: 0.35"/>
     </g>
     <g id="line2d_10">
      <g>
       <use xlink:href="#m4d212b789c" x="475.217273" y="696.876719" style="stroke: #000000; stroke-width: 0.8"/>
      </g>
     </g>
     <g id="text_5">
      <!-- 2014 -->
      <g transform="translate(452.312273 723.553906)scale(0.18 -0.18)">
       <defs>
        <path id="DejaVuSans-34" d="M 2419 4116 
L 825 1625 
L 2419 1625 
L 2419 4116 
z
M 2253 4666 
L 3047 4666 
L 3047 1625 
L 3713 1625 
L 3713 1100 
L 3047 1100 
L 3047 0 
L 2419 0 
L 2419 1100 
L 313 1100 
L 313 1709 
L 2253 4666 
z
" transform="scale(0.015625)"/>
       </defs>
       <use xlink:href="#DejaVuSans-32"/>
       <use xlink:href="#DejaVuSans-30" x="63.623047"/>
       <use xlink:href="#DejaVuSans-31" x="127.246094"/>
       <use xlink:href="#DejaVuSans-34" x="190.869141"/>
      </g>
     </g>
    </g>
    <g id="xtick_6">
     <g id="line2d_11">
      <path d="M 566.33 696.876719 
L 566.33 55.356719 
" clip-path="url(#p924843052d)" style="fill: none; stroke: #a5a5a5; stroke-width: 0.35"/>
     </g>
     <g id="line2d_12">
      <g>
       <use xlink:href="#m4d212b789c" x="566.33" y="696.876719" style="stroke: #000000; stroke-width: 0.8"/>
      </g>
     </g>
     <g id="text_6">
      <!-- 2015 -->
      <g transform="translate(543.425 723.553906)scale(0.18 -0.18)">
       <defs>
        <path id="DejaVuSans-35" d="M 691 4666 
L 3169 4666 
L 3169 4134 
L 1269 4134 
L 1269 2991 
Q 1406 3038 1543 3061 
Q 1681 3084 1819 3084 
Q 2600 3084 3056 2656 
Q 3513 2228 3513 1497 
Q 3513 744 3044 326 
Q 2575 -91 1722 -91 
Q 1428 -91 1123 -41 
Q 819 9 494 109 
L 494 744 
Q 775 591 1075 516 
Q 1375 441 1709 441 
Q 2250 441 2565 725 
Q 2881 1009 2881 1497 
Q 2881 1984 2565 2268 
Q 2250 2553 1709 2553 
Q 1456 2553 1204 2497 
Q 953 2441 691 2322 
L 691 4666 
z
" transform="scale(0.015625)"/>
       </defs>
       <use xlink:href="#DejaVuSans-32"/>
       <use xlink:href="#DejaVuSans-30" x="63.623047"/>
       <use xlink:href="#DejaVuSans-31" x="127.246094"/>
       <use xlink:href="#DejaVuSans-35" x="190.869141"/>
      </g>
     </g>
    </g>
    <g id="xtick_7">
     <g id="line2d_13">
      <path d="M 657.442727 696.876719 
L 657.442727 55.356719 
" clip-path="url(#p924843052d)" style="fill: none; stroke: #a5a5a5; stroke-width: 0.35"/>
     </g>
     <g id="line2d_14">
      <g>
       <use xlink:href="#m4d212b789c" x="657.442727" y="696.876719" style="stroke: #000000; stroke-width: 0.8"/>
      </g>
     </g>
     <g id="text_7">
      <!-- 2016 -->
      <g transform="translate(634.537727 723.553906)scale(0.18 -0.18)">
       <defs>
        <path id="DejaVuSans-36" d="M 2113 2584 
Q 1688 2584 1439 2293 
Q 1191 2003 1191 1497 
Q 1191 994 1439 701 
Q 1688 409 2113 409 
Q 2538 409 2786 701 
Q 3034 994 3034 1497 
Q 3034 2003 2786 2293 
Q 2538 2584 2113 2584 
z
M 3366 4563 
L 3366 3988 
Q 3128 4100 2886 4159 
Q 2644 4219 2406 4219 
Q 1781 4219 1451 3797 
Q 1122 3375 1075 2522 
Q 1259 2794 1537 2939 
Q 1816 3084 2150 3084 
Q 2853 3084 3261 2657 
Q 3669 2231 3669 1497 
Q 3669 778 3244 343 
Q 2819 -91 2113 -91 
Q 1303 -91 875 529 
Q 447 1150 447 2328 
Q 447 3434 972 4092 
Q 1497 4750 2381 4750 
Q 2619 4750 2861 4703 
Q 3103 4656 3366 4563 
z
" transform="scale(0.015625)"/>
       </defs>
       <use xlink:href="#DejaVuSans-32"/>
       <use xlink:href="#DejaVuSans-30" x="63.623047"/>
       <use xlink:href="#DejaVuSans-31" x="127.246094"/>
       <use xlink:href="#DejaVuSans-36" x="190.869141"/>
      </g>
     </g>
    </g>
    <g id="xtick_8">
     <g id="line2d_15">
      <path d="M 748.555455 696.876719 
L 748.555455 55.356719 
" clip-path="url(#p924843052d)" style="fill: none; stroke: #a5a5a5; stroke-width: 0.35"/>
     </g>
     <g id="line2d_16">
      <g>
       <use xlink:href="#m4d212b789c" x="748.555455" y="696.876719" style="stroke: #000000; stroke-width: 0.8"/>
      </g>
     </g>
     <g id="text_8">
      <!-- 2017 -->
      <g transform="translate(725.650455 723.553906)scale(0.18 -0.18)">
       <defs>
        <path id="DejaVuSans-37" d="M 525 4666 
L 3525 4666 
L 3525 4397 
L 1831 0 
L 1172 0 
L 2766 4134 
L 525 4134 
L 525 4666 
z
" transform="scale(0.015625)"/>
       </defs>
       <use xlink:href="#DejaVuSans-32"/>
       <use xlink:href="#DejaVuSans-30" x="63.623047"/>
       <use xlink:href="#DejaVuSans-31" x="127.246094"/>
       <use xlink:href="#DejaVuSans-37" x="190.869141"/>
      </g>
     </g>
    </g>
    <g id="xtick_9">
     <g id="line2d_17">
      <path d="M 839.668182 696.876719 
L 839.668182 55.356719 
" clip-path="url(#p924843052d)" style="fill: none; stroke: #a5a5a5; stroke-width: 0.35"/>
     </g>
     <g id="line2d_18">
      <g>
       <use xlink:href="#m4d212b789c" x="839.668182" y="696.876719" style="stroke: #000000; stroke-width: 0.8"/>
      </g>
     </g>
     <g id="text_9">
      <!-- 2018 -->
      <g transform="translate(816.763182 723.553906)scale(0.18 -0.18)">
       <defs>
        <path id="DejaVuSans-38" d="M 2034 2216 
Q 1584 2216 1326 1975 
Q 1069 1734 1069 1313 
Q 1069 891 1326 650 
Q 1584 409 2034 409 
Q 2484 409 2743 651 
Q 3003 894 3003 1313 
Q 3003 1734 2745 1975 
Q 2488 2216 2034 2216 
z
M 1403 2484 
Q 997 2584 770 2862 
Q 544 3141 544 3541 
Q 544 4100 942 4425 
Q 1341 4750 2034 4750 
Q 2731 4750 3128 4425 
Q 3525 4100 3525 3541 
Q 3525 3141 3298 2862 
Q 3072 2584 2669 2484 
Q 3125 2378 3379 2068 
Q 3634 1759 3634 1313 
Q 3634 634 3220 271 
Q 2806 -91 2034 -91 
Q 1263 -91 848 271 
Q 434 634 434 1313 
Q 434 1759 690 2068 
Q 947 2378 1403 2484 
z
M 1172 3481 
Q 1172 3119 1398 2916 
Q 1625 2713 2034 2713 
Q 2441 2713 2670 2916 
Q 2900 3119 2900 3481 
Q 2900 3844 2670 4047 
Q 2441 4250 2034 4250 
Q 1625 4250 1398 4047 
Q 1172 3844 1172 3481 
z
" transform="scale(0.015625)"/>
       </defs>
       <use xlink:href="#DejaVuSans-32"/>
       <use xlink:href="#DejaVuSans-30" x="63.623047"/>
       <use xlink:href="#DejaVuSans-31" x="127.246094"/>
       <use xlink:href="#DejaVuSans-38" x="190.869141"/>
      </g>
     </g>
    </g>
    <g id="xtick_10">
     <g id="line2d_19">
      <path d="M 930.780909 696.876719 
L 930.780909 55.356719 
" clip-path="url(#p924843052d)" style="fill: none; stroke: #a5a5a5; stroke-width: 0.35"/>
     </g>
     <g id="line2d_20">
      <g>
       <use xlink:href="#m4d212b789c" x="930.780909" y="696.876719" style="stroke: #000000; stroke-width: 0.8"/>
      </g>
     </g>
     <g id="text_10">
      <!-- 2019 -->
      <g transform="translate(907.875909 723.553906)scale(0.18 -0.18)">
       <defs>
        <path id="DejaVuSans-39" d="M 703 97 
L 703 672 
Q 941 559 1184 500 
Q 1428 441 1663 441 
Q 2288 441 2617 861 
Q 2947 1281 2994 2138 
Q 2813 1869 2534 1725 
Q 2256 1581 1919 1581 
Q 1219 1581 811 2004 
Q 403 2428 403 3163 
Q 403 3881 828 4315 
Q 1253 4750 1959 4750 
Q 2769 4750 3195 4129 
Q 3622 3509 3622 2328 
Q 3622 1225 3098 567 
Q 2575 -91 1691 -91 
Q 1453 -91 1209 -44 
Q 966 3 703 97 
z
M 1959 2075 
Q 2384 2075 2632 2365 
Q 2881 2656 2881 3163 
Q 2881 3666 2632 3958 
Q 2384 4250 1959 4250 
Q 1534 4250 1286 3958 
Q 1038 3666 1038 3163 
Q 1038 2656 1286 2365 
Q 1534 2075 1959 2075 
z
" transform="scale(0.015625)"/>
       </defs>
       <use xlink:href="#DejaVuSans-32"/>
       <use xlink:href="#DejaVuSans-30" x="63.623047"/>
       <use xlink:href="#DejaVuSans-31" x="127.246094"/>
       <use xlink:href="#DejaVuSans-39" x="190.869141"/>
      </g>
     </g>
    </g>
    <g id="xtick_11">
     <g id="line2d_21">
      <path d="M 1021.893636 696.876719 
L 1021.893636 55.356719 
" clip-path="url(#p924843052d)" style="fill: none; stroke: #a5a5a5; stroke-width: 0.35"/>
     </g>
     <g id="line2d_22">
      <g>
       <use xlink:href="#m4d212b789c" x="1021.893636" y="696.876719" style="stroke: #000000; stroke-width: 0.8"/>
      </g>
     </g>
     <g id="text_11">
      <!-- 2020 -->
      <g transform="translate(998.988636 723.553906)scale(0.18 -0.18)">
       <use xlink:href="#DejaVuSans-32"/>
       <use xlink:href="#DejaVuSans-30" x="63.623047"/>
       <use xlink:href="#DejaVuSans-32" x="127.246094"/>
       <use xlink:href="#DejaVuSans-30" x="190.869141"/>
      </g>
     </g>
    </g>
   </g>
   <g id="matplotlib.axis_2">
    <g id="ytick_1">
     <g id="line2d_23">
      <path d="M 65.21 667.716719 
L 1067.45 667.716719 
" clip-path="url(#p924843052d)" style="fill: none; stroke: #a5a5a5; stroke-width: 0.35"/>
     </g>
     <g id="line2d_24"/>
     <g id="text_12">
      <!-- 0 -->
      <g transform="translate(48.7575 663.973281)scale(0.18 -0.18)">
       <use xlink:href="#DejaVuSans-30"/>
      </g>
     </g>
    </g>
    <g id="ytick_2">
     <g id="line2d_25">
      <path d="M 65.21 540.101839 
L 1067.45 540.101839 
" clip-path="url(#p924843052d)" style="fill: none; stroke: #a5a5a5; stroke-width: 0.35"/>
     </g>
     <g id="line2d_26"/>
     <g id="text_13">
      <!-- 500 -->
      <g transform="translate(25.8525 536.358402)scale(0.18 -0.18)">
       <use xlink:href="#DejaVuSans-35"/>
       <use xlink:href="#DejaVuSans-30" x="63.623047"/>
       <use xlink:href="#DejaVuSans-30" x="127.246094"/>
      </g>
     </g>
    </g>
    <g id="ytick_3">
     <g id="line2d_27">
      <path d="M 65.21 412.486959 
L 1067.45 412.486959 
" clip-path="url(#p924843052d)" style="fill: none; stroke: #a5a5a5; stroke-width: 0.35"/>
     </g>
     <g id="line2d_28"/>
     <g id="text_14">
      <!-- 1000 -->
      <g transform="translate(14.4 408.743522)scale(0.18 -0.18)">
       <use xlink:href="#DejaVuSans-31"/>
       <use xlink:href="#DejaVuSans-30" x="63.623047"/>
       <use xlink:href="#DejaVuSans-30" x="127.246094"/>
       <use xlink:href="#DejaVuSans-30" x="190.869141"/>
      </g>
     </g>
    </g>
    <g id="ytick_4">
     <g id="line2d_29">
      <path d="M 65.21 284.87208 
L 1067.45 284.87208 
" clip-path="url(#p924843052d)" style="fill: none; stroke: #a5a5a5; stroke-width: 0.35"/>
     </g>
     <g id="line2d_30"/>
     <g id="text_15">
      <!-- 1500 -->
      <g transform="translate(14.4 281.128642)scale(0.18 -0.18)">
       <use xlink:href="#DejaVuSans-31"/>
       <use xlink:href="#DejaVuSans-35" x="63.623047"/>
       <use xlink:href="#DejaVuSans-30" x="127.246094"/>
       <use xlink:href="#DejaVuSans-30" x="190.869141"/>
      </g>
     </g>
    </g>
    <g id="ytick_5">
     <g id="line2d_31">
      <path d="M 65.21 157.2572 
L 1067.45 157.2572 
" clip-path="url(#p924843052d)" style="fill: none; stroke: #a5a5a5; stroke-width: 0.35"/>
     </g>
     <g id="line2d_32"/>
     <g id="text_16">
      <!-- 2000 -->
      <g transform="translate(14.4 153.513763)scale(0.18 -0.18)">
       <use xlink:href="#DejaVuSans-32"/>
       <use xlink:href="#DejaVuSans-30" x="63.623047"/>
       <use xlink:href="#DejaVuSans-30" x="127.246094"/>
       <use xlink:href="#DejaVuSans-30" x="190.869141"/>
      </g>
     </g>
    </g>
   </g>
   <g id="line2d_33">
    <path d="M 110.766364 318.562408 
L 201.879091 334.386653 
L 292.991818 530.403108 
L 384.104545 570.218951 
L 475.217273 450.260964 
L 566.33 162.106566 
L 657.442727 97.533436 
L 748.555455 84.516719 
L 839.668182 85.792868 
L 930.780909 129.692386 
L 1021.893636 175.123283 
" clip-path="url(#p924843052d)" style="fill: none; stroke: #1879ce; stroke-width: 4"/>
   </g>
   <g id="line2d_34">
    <path d="M 110.766364 580.938601 
L 201.879091 528.6165 
L 292.991818 569.708491 
L 384.104545 476.804859 
L 475.217273 447.453436 
L 566.33 409.679432 
L 657.442727 381.859388 
L 748.555455 364.248535 
L 839.668182 362.717156 
L 930.780909 344.595843 
L 1021.893636 400.235931 
" clip-path="url(#p924843052d)" style="fill: none; stroke: #fc4f30; stroke-width: 4"/>
   </g>
   <g id="line2d_35">
    <path d="M 110.766364 598.549454 
L 201.879091 575.578776 
L 292.991818 587.064115 
L 384.104545 582.725209 
L 475.217273 563.838207 
L 566.33 560.77545 
L 657.442727 566.645734 
L 748.555455 566.645734 
L 839.668182 584.767047 
M 1021.893636 607.482496 
" clip-path="url(#p924843052d)" style="fill: none; stroke: #d3d3d3; stroke-width: 3"/>
   </g>
   <g id="line2d_36">
    <path d="M 110.766364 648.574487 
L 201.879091 626.624728 
L 292.991818 629.432255 
M 475.217273 617.436456 
L 566.33 604.930198 
L 657.442727 612.842321 
L 748.555455 611.310942 
L 839.668182 611.055712 
L 930.780909 617.436456 
L 1021.893636 618.202145 
" clip-path="url(#p924843052d)" style="fill: none; stroke: #d3d3d3; stroke-width: 3"/>
   </g>
   <g id="line2d_37">
    <path d="M 292.991818 667.716719 
L 384.104545 666.6958 
L 475.217273 666.6958 
L 566.33 666.44057 
L 657.442727 666.951029 
L 748.555455 666.44057 
L 839.668182 665.164421 
L 930.780909 666.44057 
L 1021.893636 666.6958 
" clip-path="url(#p924843052d)" style="fill: none; stroke: #d3d3d3; stroke-width: 3"/>
   </g>
   <g id="line2d_38">
    <path d="M 110.766364 557.712692 
L 201.879091 603.14359 
L 292.991818 634.28162 
L 384.104545 627.645647 
L 475.217273 610.034793 
L 566.33 613.86324 
L 657.442727 611.055712 
M 839.668182 614.373699 
L 930.780909 613.60801 
L 1021.893636 621.520132 
" clip-path="url(#p924843052d)" style="fill: none; stroke: #d3d3d3; stroke-width: 3"/>
   </g>
   <g id="line2d_39">
    <path d="M 292.991818 667.716719 
M 475.217273 659.294137 
L 566.33 661.846434 
L 657.442727 657.762758 
L 748.555455 656.997069 
L 839.668182 656.997069 
L 930.780909 656.486609 
L 1021.893636 658.273218 
" clip-path="url(#p924843052d)" style="fill: none; stroke: #d3d3d3; stroke-width: 3"/>
   </g>
   <g id="line2d_40">
    <path d="M 292.991818 666.951029 
L 384.104545 663.122583 
L 475.217273 662.867353 
M 657.442727 661.846434 
L 748.555455 659.294137 
L 839.668182 662.612124 
L 930.780909 663.888272 
L 1021.893636 663.888272 
" clip-path="url(#p924843052d)" style="fill: none; stroke: #d3d3d3; stroke-width: 3"/>
   </g>
   <g id="line2d_41">
    <path d="M 110.766364 633.515931 
L 201.879091 614.628929 
L 292.991818 644.74604 
L 384.104545 657.252299 
L 475.217273 663.888272 
L 566.33 661.846434 
L 657.442727 664.909191 
L 748.555455 664.653962 
L 839.668182 664.143502 
L 930.780909 662.356894 
L 1021.893636 664.143502 
" clip-path="url(#p924843052d)" style="fill: none; stroke: #d3d3d3; stroke-width: 3"/>
   </g>
   <g id="line2d_42">
    <path d="M 110.766364 666.6958 
L 201.879091 665.93011 
L 292.991818 659.294137 
L 384.104545 620.243984 
L 475.217273 618.202145 
L 566.33 606.206347 
L 657.442727 590.382102 
L 748.555455 596.252386 
L 839.668182 592.16871 
L 930.780909 602.122671 
L 1021.893636 606.972036 
" clip-path="url(#p924843052d)" style="fill: none; stroke: #d3d3d3; stroke-width: 3"/>
   </g>
   <g id="line2d_43">
    <path d="M 110.766364 667.716719 
L 201.879091 666.44057 
L 292.991818 666.951029 
L 384.104545 667.716719 
L 475.217273 667.716719 
L 566.33 665.164421 
L 657.442727 663.633043 
L 748.555455 663.633043 
L 839.668182 663.122583 
L 930.780909 662.101664 
L 1021.893636 664.653962 
" clip-path="url(#p924843052d)" style="fill: none; stroke: #d3d3d3; stroke-width: 3"/>
   </g>
   <g id="line2d_44">
    <path d="M 292.991818 667.716719 
L 384.104545 667.716719 
L 475.217273 666.18534 
L 566.33 666.6958 
L 657.442727 665.93011 
L 748.555455 665.674881 
L 839.668182 666.18534 
L 930.780909 666.951029 
L 1021.893636 667.206259 
" clip-path="url(#p924843052d)" style="fill: none; stroke: #d3d3d3; stroke-width: 3"/>
   </g>
   <g id="line2d_45">
    <path d="M 292.991818 667.716719 
L 384.104545 667.716719 
L 475.217273 667.716719 
L 566.33 667.461489 
L 657.442727 667.716719 
L 748.555455 667.461489 
L 839.668182 666.18534 
L 930.780909 666.951029 
L 1021.893636 667.716719 
" clip-path="url(#p924843052d)" style="fill: none; stroke: #d3d3d3; stroke-width: 3"/>
   </g>
   <g id="line2d_46">
    <path d="M 110.766364 628.411336 
L 201.879091 643.980351 
L 292.991818 652.402933 
L 384.104545 649.084946 
L 475.217273 647.808798 
L 566.33 633.260701 
L 657.442727 629.687485 
L 748.555455 624.07243 
L 839.668182 616.415537 
L 930.780909 608.758644 
L 1021.893636 612.587091 
" clip-path="url(#p924843052d)" style="fill: none; stroke: #d3d3d3; stroke-width: 3"/>
   </g>
   <g id="line2d_47">
    <path d="M 110.766364 649.084946 
L 201.879091 643.980351 
L 292.991818 648.829717 
L 384.104545 641.428054 
L 475.217273 639.130986 
L 566.33 642.959432 
L 657.442727 640.917594 
L 748.555455 630.963633 
L 839.668182 622.030592 
L 930.780909 619.478294 
L 1021.893636 625.603808 
" clip-path="url(#p924843052d)" style="fill: none; stroke: #d3d3d3; stroke-width: 3"/>
   </g>
   <g id="line2d_48">
    <path d="M 110.766364 630.453174 
L 201.879091 606.972036 
L 292.991818 634.28162 
L 384.104545 646.277419 
L 475.217273 652.658163 
L 566.33 654.700001 
L 657.442727 653.679082 
L 748.555455 647.553568 
L 839.668182 648.319257 
L 930.780909 643.469892 
L 1021.893636 646.022189 
" clip-path="url(#p924843052d)" style="fill: none; stroke: #d3d3d3; stroke-width: 3"/>
   </g>
   <g id="line2d_49">
    <path d="M 110.766364 666.6958 
L 201.879091 666.6958 
L 292.991818 667.461489 
L 384.104545 667.206259 
L 475.217273 665.419651 
L 566.33 667.461489 
L 657.442727 667.716719 
L 748.555455 667.206259 
L 839.668182 666.6958 
L 930.780909 665.93011 
L 1021.893636 667.716719 
" clip-path="url(#p924843052d)" style="fill: none; stroke: #d3d3d3; stroke-width: 3"/>
   </g>
   <g id="line2d_50">
    <path d="M 292.991818 667.716719 
L 384.104545 667.461489 
L 475.217273 666.6958 
L 566.33 666.6958 
L 657.442727 666.6958 
L 748.555455 666.18534 
L 839.668182 666.6958 
L 930.780909 666.18534 
L 1021.893636 664.653962 
" clip-path="url(#p924843052d)" style="fill: none; stroke: #d3d3d3; stroke-width: 3"/>
   </g>
   <g id="line2d_51">
    <path d="M 110.766364 652.913393 
L 201.879091 654.955231 
L 292.991818 654.444771 
L 384.104545 637.854837 
L 475.217273 624.838119 
L 566.33 622.541051 
L 657.442727 626.624728 
L 748.555455 618.202145 
L 839.668182 617.181226 
L 930.780909 624.07243 
L 1021.893636 642.704202 
" clip-path="url(#p924843052d)" style="fill: none; stroke: #d3d3d3; stroke-width: 3"/>
   </g>
   <g id="line2d_52">
    <path d="M 292.991818 667.716719 
L 384.104545 667.461489 
L 475.217273 667.206259 
L 566.33 666.951029 
L 657.442727 667.206259 
L 748.555455 666.951029 
L 839.668182 666.951029 
L 930.780909 665.674881 
L 1021.893636 666.951029 
" clip-path="url(#p924843052d)" style="fill: none; stroke: #d3d3d3; stroke-width: 3"/>
   </g>
   <g id="line2d_53">
    <path d="M 292.991818 667.716719 
L 384.104545 667.461489 
L 475.217273 667.206259 
L 566.33 666.6958 
L 657.442727 666.6958 
L 748.555455 665.164421 
L 839.668182 665.419651 
L 930.780909 664.653962 
L 1021.893636 664.653962 
" clip-path="url(#p924843052d)" style="fill: none; stroke: #d3d3d3; stroke-width: 3"/>
   </g>
   <g id="patch_3">
    <path d="M 65.21 696.876719 
L 1067.45 696.876719 
" style="fill: none; stroke: #000000; stroke-linejoin: miter; stroke-linecap: square"/>
   </g>
   <g id="text_17">
    <!-- Рост приговоров по педофилии в основном пришёлся на две статьи -->
    <g transform="translate(65.21 30.356719)scale(0.21 -0.21)">
     <defs>
      <path id="DejaVuSans-420" d="M 1259 4147 
L 1259 2394 
L 2053 2394 
Q 2494 2394 2734 2622 
Q 2975 2850 2975 3272 
Q 2975 3691 2734 3919 
Q 2494 4147 2053 4147 
L 1259 4147 
z
M 628 4666 
L 2053 4666 
Q 2838 4666 3239 4311 
Q 3641 3956 3641 3272 
Q 3641 2581 3239 2228 
Q 2838 1875 2053 1875 
L 1259 1875 
L 1259 0 
L 628 0 
L 628 4666 
z
" transform="scale(0.015625)"/>
      <path id="DejaVuSans-43e" d="M 1959 3097 
Q 1497 3097 1228 2736 
Q 959 2375 959 1747 
Q 959 1119 1226 758 
Q 1494 397 1959 397 
Q 2419 397 2687 759 
Q 2956 1122 2956 1747 
Q 2956 2369 2687 2733 
Q 2419 3097 1959 3097 
z
M 1959 3584 
Q 2709 3584 3137 3096 
Q 3566 2609 3566 1747 
Q 3566 888 3137 398 
Q 2709 -91 1959 -91 
Q 1206 -91 779 398 
Q 353 888 353 1747 
Q 353 2609 779 3096 
Q 1206 3584 1959 3584 
z
" transform="scale(0.015625)"/>
      <path id="DejaVuSans-441" d="M 3122 3366 
L 3122 2828 
Q 2878 2963 2633 3030 
Q 2388 3097 2138 3097 
Q 1578 3097 1268 2742 
Q 959 2388 959 1747 
Q 959 1106 1268 751 
Q 1578 397 2138 397 
Q 2388 397 2633 464 
Q 2878 531 3122 666 
L 3122 134 
Q 2881 22 2623 -34 
Q 2366 -91 2075 -91 
Q 1284 -91 818 406 
Q 353 903 353 1747 
Q 353 2603 823 3093 
Q 1294 3584 2113 3584 
Q 2378 3584 2631 3529 
Q 2884 3475 3122 3366 
z
" transform="scale(0.015625)"/>
      <path id="DejaVuSans-442" d="M 188 3500 
L 3541 3500 
L 3541 3041 
L 2147 3041 
L 2147 0 
L 1581 0 
L 1581 3041 
L 188 3041 
L 188 3500 
z
" transform="scale(0.015625)"/>
      <path id="DejaVuSans-20" transform="scale(0.015625)"/>
      <path id="DejaVuSans-43f" d="M 3603 3500 
L 3603 0 
L 3025 0 
L 3025 3041 
L 1159 3041 
L 1159 0 
L 581 0 
L 581 3500 
L 3603 3500 
z
" transform="scale(0.015625)"/>
      <path id="DejaVuSans-440" d="M 1159 525 
L 1159 -1331 
L 581 -1331 
L 581 3500 
L 1159 3500 
L 1159 2969 
Q 1341 3281 1617 3432 
Q 1894 3584 2278 3584 
Q 2916 3584 3314 3078 
Q 3713 2572 3713 1747 
Q 3713 922 3314 415 
Q 2916 -91 2278 -91 
Q 1894 -91 1617 61 
Q 1341 213 1159 525 
z
M 3116 1747 
Q 3116 2381 2855 2742 
Q 2594 3103 2138 3103 
Q 1681 3103 1420 2742 
Q 1159 2381 1159 1747 
Q 1159 1113 1420 752 
Q 1681 391 2138 391 
Q 2594 391 2855 752 
Q 3116 1113 3116 1747 
z
" transform="scale(0.015625)"/>
      <path id="DejaVuSans-438" d="M 3578 3500 
L 3578 0 
L 3006 0 
L 3006 2809 
L 1319 0 
L 581 0 
L 581 3500 
L 1153 3500 
L 1153 697 
L 2838 3500 
L 3578 3500 
z
" transform="scale(0.015625)"/>
      <path id="DejaVuSans-433" d="M 581 0 
L 581 3500 
L 3050 3500 
L 3050 3041 
L 1159 3041 
L 1159 0 
L 581 0 
z
" transform="scale(0.015625)"/>
      <path id="DejaVuSans-432" d="M 1156 1613 
L 1156 459 
L 1975 459 
Q 2369 459 2575 607 
Q 2781 756 2781 1038 
Q 2781 1319 2575 1466 
Q 2369 1613 1975 1613 
L 1156 1613 
z
M 1156 3041 
L 1156 2072 
L 1913 2072 
Q 2238 2072 2444 2201 
Q 2650 2331 2650 2563 
Q 2650 2794 2444 2917 
Q 2238 3041 1913 3041 
L 1156 3041 
z
M 581 3500 
L 1950 3500 
Q 2566 3500 2897 3275 
Q 3228 3050 3228 2634 
Q 3228 2313 3059 2123 
Q 2891 1934 2559 1888 
Q 2956 1813 3175 1575 
Q 3394 1338 3394 981 
Q 3394 513 3033 256 
Q 2672 0 2003 0 
L 581 0 
L 581 3500 
z
" transform="scale(0.015625)"/>
      <path id="DejaVuSans-435" d="M 3597 1894 
L 3597 1613 
L 953 1613 
Q 991 1019 1311 708 
Q 1631 397 2203 397 
Q 2534 397 2845 478 
Q 3156 559 3463 722 
L 3463 178 
Q 3153 47 2828 -22 
Q 2503 -91 2169 -91 
Q 1331 -91 842 396 
Q 353 884 353 1716 
Q 353 2575 817 3079 
Q 1281 3584 2069 3584 
Q 2775 3584 3186 3129 
Q 3597 2675 3597 1894 
z
M 3022 2063 
Q 3016 2534 2758 2815 
Q 2500 3097 2075 3097 
Q 1594 3097 1305 2825 
Q 1016 2553 972 2059 
L 3022 2063 
z
" transform="scale(0.015625)"/>
      <path id="DejaVuSans-434" d="M 1384 459 
L 3053 459 
L 3053 3041 
L 1844 3041 
L 1844 2603 
Q 1844 1316 1475 628 
L 1384 459 
z
M 550 459 
Q 834 584 959 850 
Q 1266 1509 1266 2838 
L 1266 3500 
L 3631 3500 
L 3631 459 
L 4091 459 
L 4091 -884 
L 3631 -884 
L 3631 0 
L 794 0 
L 794 -884 
L 334 -884 
L 334 459 
L 550 459 
z
" transform="scale(0.015625)"/>
      <path id="DejaVuSans-444" d="M 947 1747 
Q 947 1013 1173 702 
Q 1400 391 1784 391 
Q 2091 391 2447 916 
L 2447 2578 
Q 2091 3103 1784 3103 
Q 1400 3103 1173 2792 
Q 947 2481 947 1747 
z
M 2447 -1331 
L 2447 447 
Q 2269 153 2064 31 
Q 1859 -91 1600 -91 
Q 1078 -91 714 392 
Q 350 875 350 1734 
Q 350 2594 714 3089 
Q 1078 3584 1600 3584 
Q 1859 3584 2064 3465 
Q 2269 3347 2447 3053 
L 2447 4666 
L 3025 4666 
L 3025 3053 
Q 3203 3347 3408 3465 
Q 3613 3584 3872 3584 
Q 4394 3584 4758 3089 
Q 5122 2594 5122 1734 
Q 5122 875 4758 392 
Q 4394 -91 3872 -91 
Q 3613 -91 3408 31 
Q 3203 153 3025 447 
L 3025 -1331 
L 2447 -1331 
z
M 4525 1747 
Q 4525 2481 4298 2792 
Q 4072 3103 3688 3103 
Q 3381 3103 3025 2578 
L 3025 916 
Q 3381 391 3688 391 
Q 4072 391 4298 702 
Q 4525 1013 4525 1747 
z
" transform="scale(0.015625)"/>
      <path id="DejaVuSans-43b" d="M 238 0 
L 238 478 
Q 806 566 981 959 
Q 1194 1513 1194 2928 
L 1194 3500 
L 3559 3500 
L 3559 0 
L 2984 0 
L 2984 3041 
L 1769 3041 
L 1769 2694 
Q 1769 1344 1494 738 
Q 1200 91 238 0 
z
" transform="scale(0.015625)"/>
      <path id="DejaVuSans-43d" d="M 581 3500 
L 1159 3500 
L 1159 2072 
L 3025 2072 
L 3025 3500 
L 3603 3500 
L 3603 0 
L 3025 0 
L 3025 1613 
L 1159 1613 
L 1159 0 
L 581 0 
L 581 3500 
z
" transform="scale(0.015625)"/>
      <path id="DejaVuSans-43c" d="M 581 3500 
L 1422 3500 
L 2416 1156 
L 3413 3500 
L 4247 3500 
L 4247 0 
L 3669 0 
L 3669 2950 
L 2703 672 
L 2128 672 
L 1159 2950 
L 1159 0 
L 581 0 
L 581 3500 
z
" transform="scale(0.015625)"/>
      <path id="DejaVuSans-448" d="M 3216 459 
L 4697 459 
L 4697 3500 
L 5275 3500 
L 5275 0 
L 581 0 
L 581 3500 
L 1159 3500 
L 1159 459 
L 2638 459 
L 2638 3500 
L 3216 3500 
L 3216 459 
z
" transform="scale(0.015625)"/>
      <path id="DejaVuSans-451" d="M 3597 1894 
L 3597 1613 
L 953 1613 
Q 991 1019 1311 708 
Q 1631 397 2203 397 
Q 2534 397 2845 478 
Q 3156 559 3463 722 
L 3463 178 
Q 3153 47 2828 -22 
Q 2503 -91 2169 -91 
Q 1331 -91 842 396 
Q 353 884 353 1716 
Q 353 2575 817 3079 
Q 1281 3584 2069 3584 
Q 2775 3584 3186 3129 
Q 3597 2675 3597 1894 
z
M 3022 2063 
Q 3016 2534 2758 2815 
Q 2500 3097 2075 3097 
Q 1594 3097 1305 2825 
Q 1016 2553 972 2059 
L 3022 2063 
z
M 2363 4850 
L 2997 4850 
L 2997 4219 
L 2363 4219 
L 2363 4850 
z
M 1141 4850 
L 1775 4850 
L 1775 4219 
L 1141 4219 
L 1141 4850 
z
" transform="scale(0.015625)"/>
      <path id="DejaVuSans-44f" d="M 1181 2491 
Q 1181 2231 1381 2084 
Q 1581 1938 1953 1938 
L 2728 1938 
L 2728 3041 
L 1953 3041 
Q 1581 3041 1381 2897 
Q 1181 2753 1181 2491 
z
M 363 0 
L 1431 1534 
Q 1069 1616 828 1830 
Q 588 2044 588 2491 
Q 588 2997 923 3248 
Q 1259 3500 1938 3500 
L 3306 3500 
L 3306 0 
L 2728 0 
L 2728 1478 
L 2013 1478 
L 981 0 
L 363 0 
z
" transform="scale(0.015625)"/>
      <path id="DejaVuSans-430" d="M 2194 1759 
Q 1497 1759 1228 1600 
Q 959 1441 959 1056 
Q 959 750 1161 570 
Q 1363 391 1709 391 
Q 2188 391 2477 730 
Q 2766 1069 2766 1631 
L 2766 1759 
L 2194 1759 
z
M 3341 1997 
L 3341 0 
L 2766 0 
L 2766 531 
Q 2569 213 2275 61 
Q 1981 -91 1556 -91 
Q 1019 -91 701 211 
Q 384 513 384 1019 
Q 384 1609 779 1909 
Q 1175 2209 1959 2209 
L 2766 2209 
L 2766 2266 
Q 2766 2663 2505 2880 
Q 2244 3097 1772 3097 
Q 1472 3097 1187 3025 
Q 903 2953 641 2809 
L 641 3341 
Q 956 3463 1253 3523 
Q 1550 3584 1831 3584 
Q 2591 3584 2966 3190 
Q 3341 2797 3341 1997 
z
" transform="scale(0.015625)"/>
      <path id="DejaVuSans-44c" d="M 2781 1038 
Q 2781 1319 2576 1466 
Q 2372 1613 1978 1613 
L 1159 1613 
L 1159 459 
L 1978 459 
Q 2372 459 2576 607 
Q 2781 756 2781 1038 
z
M 581 3500 
L 1159 3500 
L 1159 2072 
L 2003 2072 
Q 2672 2072 3033 1817 
Q 3394 1563 3394 1038 
Q 3394 513 3033 256 
Q 2672 0 2003 0 
L 581 0 
L 581 3500 
z
" transform="scale(0.015625)"/>
     </defs>
     <use xlink:href="#DejaVuSans-420"/>
     <use xlink:href="#DejaVuSans-43e" x="60.302734"/>
     <use xlink:href="#DejaVuSans-441" x="121.484375"/>
     <use xlink:href="#DejaVuSans-442" x="176.464844"/>
     <use xlink:href="#DejaVuSans-20" x="234.716797"/>
     <use xlink:href="#DejaVuSans-43f" x="266.503906"/>
     <use xlink:href="#DejaVuSans-440" x="331.884766"/>
     <use xlink:href="#DejaVuSans-438" x="395.361328"/>
     <use xlink:href="#DejaVuSans-433" x="460.351562"/>
     <use xlink:href="#DejaVuSans-43e" x="512.890625"/>
     <use xlink:href="#DejaVuSans-432" x="574.072266"/>
     <use xlink:href="#DejaVuSans-43e" x="633.007812"/>
     <use xlink:href="#DejaVuSans-440" x="694.189453"/>
     <use xlink:href="#DejaVuSans-43e" x="757.666016"/>
     <use xlink:href="#DejaVuSans-432" x="818.847656"/>
     <use xlink:href="#DejaVuSans-20" x="877.783203"/>
     <use xlink:href="#DejaVuSans-43f" x="909.570312"/>
     <use xlink:href="#DejaVuSans-43e" x="974.951172"/>
     <use xlink:href="#DejaVuSans-20" x="1036.132812"/>
     <use xlink:href="#DejaVuSans-43f" x="1067.919922"/>
     <use xlink:href="#DejaVuSans-435" x="1133.300781"/>
     <use xlink:href="#DejaVuSans-434" x="1194.824219"/>
     <use xlink:href="#DejaVuSans-43e" x="1263.964844"/>
     <use xlink:href="#DejaVuSans-444" x="1325.146484"/>
     <use xlink:href="#DejaVuSans-438" x="1410.644531"/>
     <use xlink:href="#DejaVuSans-43b" x="1475.634766"/>
     <use xlink:href="#DejaVuSans-438" x="1539.550781"/>
     <use xlink:href="#DejaVuSans-438" x="1604.541016"/>
     <use xlink:href="#DejaVuSans-20" x="1669.53125"/>
     <use xlink:href="#DejaVuSans-432" x="1701.318359"/>
     <use xlink:href="#DejaVuSans-20" x="1760.253906"/>
     <use xlink:href="#DejaVuSans-43e" x="1792.041016"/>
     <use xlink:href="#DejaVuSans-441" x="1853.222656"/>
     <use xlink:href="#DejaVuSans-43d" x="1908.203125"/>
     <use xlink:href="#DejaVuSans-43e" x="1973.583984"/>
     <use xlink:href="#DejaVuSans-432" x="2034.765625"/>
     <use xlink:href="#DejaVuSans-43d" x="2093.701172"/>
     <use xlink:href="#DejaVuSans-43e" x="2159.082031"/>
     <use xlink:href="#DejaVuSans-43c" x="2220.263672"/>
     <use xlink:href="#DejaVuSans-20" x="2295.703125"/>
     <use xlink:href="#DejaVuSans-43f" x="2327.490234"/>
     <use xlink:href="#DejaVuSans-440" x="2392.871094"/>
     <use xlink:href="#DejaVuSans-438" x="2456.347656"/>
     <use xlink:href="#DejaVuSans-448" x="2521.337891"/>
     <use xlink:href="#DejaVuSans-451" x="2612.841797"/>
     <use xlink:href="#DejaVuSans-43b" x="2674.365234"/>
     <use xlink:href="#DejaVuSans-441" x="2738.28125"/>
     <use xlink:href="#DejaVuSans-44f" x="2793.261719"/>
     <use xlink:href="#DejaVuSans-20" x="2853.417969"/>
     <use xlink:href="#DejaVuSans-43d" x="2885.205078"/>
     <use xlink:href="#DejaVuSans-430" x="2950.585938"/>
     <use xlink:href="#DejaVuSans-20" x="3011.865234"/>
     <use xlink:href="#DejaVuSans-434" x="3043.652344"/>
     <use xlink:href="#DejaVuSans-432" x="3112.792969"/>
     <use xlink:href="#DejaVuSans-435" x="3171.728516"/>
     <use xlink:href="#DejaVuSans-20" x="3233.251953"/>
     <use xlink:href="#DejaVuSans-441" x="3265.039062"/>
     <use xlink:href="#DejaVuSans-442" x="3320.019531"/>
     <use xlink:href="#DejaVuSans-430" x="3378.271484"/>
     <use xlink:href="#DejaVuSans-442" x="3439.550781"/>
     <use xlink:href="#DejaVuSans-44c" x="3497.802734"/>
     <use xlink:href="#DejaVuSans-438" x="3556.738281"/>
    </g>
   </g>
   <g id="legend_1">
    <g id="patch_4">
     <path d="M 77.81 149.018594 
L 240.161563 149.018594 
Q 243.761562 149.018594 243.761562 145.418594 
L 243.761562 67.956719 
Q 243.761562 64.356719 240.161563 64.356719 
L 77.81 64.356719 
Q 74.21 64.356719 74.21 67.956719 
L 74.21 145.418594 
Q 74.21 149.018594 77.81 149.018594 
z
" style="fill: #ffffff; opacity: 0.8; stroke: #cccccc; stroke-linejoin: miter"/>
    </g>
    <g id="line2d_54">
     <path d="M 81.41 78.933906 
L 99.41 78.933906 
L 117.41 78.933906 
" style="fill: none; stroke: #1879ce; stroke-width: 4"/>
    </g>
    <g id="text_18">
     <!-- 134ч.1 -->
     <g transform="translate(131.81 85.233906)scale(0.18 -0.18)">
      <defs>
       <path id="DejaVuSans-447" d="M 2625 0 
L 2625 1472 
L 1553 1472 
Q 1075 1472 756 1769 
Q 469 2038 469 2613 
L 469 3500 
L 1044 3500 
L 1044 2666 
Q 1044 2300 1206 2116 
Q 1372 1931 1697 1931 
L 2625 1931 
L 2625 3500 
L 3200 3500 
L 3200 0 
L 2625 0 
z
" transform="scale(0.015625)"/>
       <path id="DejaVuSans-2e" d="M 684 794 
L 1344 794 
L 1344 0 
L 684 0 
L 684 794 
z
" transform="scale(0.015625)"/>
      </defs>
      <use xlink:href="#DejaVuSans-31"/>
      <use xlink:href="#DejaVuSans-33" x="63.623047"/>
      <use xlink:href="#DejaVuSans-34" x="127.246094"/>
      <use xlink:href="#DejaVuSans-447" x="190.869141"/>
      <use xlink:href="#DejaVuSans-2e" x="249.951172"/>
      <use xlink:href="#DejaVuSans-31" x="281.738281"/>
     </g>
    </g>
    <g id="line2d_55">
     <path d="M 81.41 105.354531 
L 99.41 105.354531 
L 117.41 105.354531 
" style="fill: none; stroke: #fc4f30; stroke-width: 4"/>
    </g>
    <g id="text_19">
     <!-- 132ч.4 -->
     <g transform="translate(131.81 111.654531)scale(0.18 -0.18)">
      <use xlink:href="#DejaVuSans-31"/>
      <use xlink:href="#DejaVuSans-33" x="63.623047"/>
      <use xlink:href="#DejaVuSans-32" x="127.246094"/>
      <use xlink:href="#DejaVuSans-447" x="190.869141"/>
      <use xlink:href="#DejaVuSans-2e" x="249.951172"/>
      <use xlink:href="#DejaVuSans-34" x="281.738281"/>
     </g>
    </g>
    <g id="line2d_56">
     <path d="M 81.41 131.775156 
L 99.41 131.775156 
L 117.41 131.775156 
" style="fill: none; stroke: #d3d3d3; stroke-width: 3"/>
    </g>
    <g id="text_20">
     <!-- Остальные -->
     <g transform="translate(131.81 138.075156)scale(0.18 -0.18)">
      <defs>
       <path id="DejaVuSans-41e" d="M 2522 4238 
Q 1834 4238 1429 3725 
Q 1025 3213 1025 2328 
Q 1025 1447 1429 934 
Q 1834 422 2522 422 
Q 3209 422 3611 934 
Q 4013 1447 4013 2328 
Q 4013 3213 3611 3725 
Q 3209 4238 2522 4238 
z
M 2522 4750 
Q 3503 4750 4090 4092 
Q 4678 3434 4678 2328 
Q 4678 1225 4090 567 
Q 3503 -91 2522 -91 
Q 1538 -91 948 565 
Q 359 1222 359 2328 
Q 359 3434 948 4092 
Q 1538 4750 2522 4750 
z
" transform="scale(0.015625)"/>
       <path id="DejaVuSans-44b" d="M 3909 3500 
L 4484 3500 
L 4484 0 
L 3909 0 
L 3909 3500 
z
M 4197 3584 
L 4197 3584 
z
M 2781 1038 
Q 2781 1319 2576 1466 
Q 2372 1613 1978 1613 
L 1159 1613 
L 1159 459 
L 1978 459 
Q 2372 459 2576 607 
Q 2781 756 2781 1038 
z
M 581 3500 
L 1159 3500 
L 1159 2072 
L 2003 2072 
Q 2672 2072 3033 1817 
Q 3394 1563 3394 1038 
Q 3394 513 3033 256 
Q 2672 0 2003 0 
L 581 0 
L 581 3500 
z
" transform="scale(0.015625)"/>
      </defs>
      <use xlink:href="#DejaVuSans-41e"/>
      <use xlink:href="#DejaVuSans-441" x="78.710938"/>
      <use xlink:href="#DejaVuSans-442" x="133.691406"/>
      <use xlink:href="#DejaVuSans-430" x="191.943359"/>
      <use xlink:href="#DejaVuSans-43b" x="253.222656"/>
      <use xlink:href="#DejaVuSans-44c" x="317.138672"/>
      <use xlink:href="#DejaVuSans-43d" x="376.074219"/>
      <use xlink:href="#DejaVuSans-44b" x="441.455078"/>
      <use xlink:href="#DejaVuSans-435" x="520.410156"/>
     </g>
    </g>
   </g>
  </g>
 </g>
 <defs>
  <clipPath id="p924843052d">
   <rect x="65.21" y="55.356719" width="1002.24" height="641.52"/>
  </clipPath>
 </defs>
</svg>
