<?xml version="1.0" encoding="utf-8" standalone="no"?>
<!DOCTYPE svg PUBLIC "-//W3C//DTD SVG 1.1//EN"
  "http://www.w3.org/Graphics/SVG/1.1/DTD/svg11.dtd">
<svg xmlns:xlink="http://www.w3.org/1999/xlink" width="1081.85pt" height="741.697344pt" viewBox="0 0 1081.85 741.697344" xmlns="http://www.w3.org/2000/svg" version="1.1">
 <metadata>
  <rdf:RDF xmlns:dc="http://purl.org/dc/elements/1.1/" xmlns:cc="http://creativecommons.org/ns#" xmlns:rdf="http://www.w3.org/1999/02/22-rdf-syntax-ns#">
   <cc:Work>
    <dc:type rdf:resource="http://purl.org/dc/dcmitype/StillImage"/>
    <dc:date>2022-09-30T16:37:10.103299</dc:date>
    <dc:format>image/svg+xml</dc:format>
    <dc:creator>
     <cc:Agent>
      <dc:title>Matplotlib v3.5.1, https://matplotlib.org/</dc:title>
     </cc:Agent>
    </dc:creator>
   </cc:Work>
  </rdf:RDF>
 </metadata>
 <defs>
  <style type="text/css">*{stroke-linejoin: round; stroke-linecap: butt}</style>
 </defs>
 <g id="figure_1">
  <g id="patch_1">
   <path d="M 0 741.697344 
L 1081.85 741.697344 
L 1081.85 0 
L 0 0 
z
" style="fill: #ffffff"/>
  </g>
  <g id="axes_1">
   <g id="patch_2">
    <path d="M 65.21 696.876719 
L 1067.45 696.876719 
L 1067.45 55.356719 
L 65.21 55.356719 
z
" style="fill: #ffffff"/>
   </g>
   <g id="matplotlib.axis_1">
    <g id="xtick_1">
     <g id="line2d_1">
      <path d="M 110.766364 696.876719 
L 110.766364 55.356719 
" clip-path="url(#p350937683d)" style="fill: none; stroke: #a5a5a5; stroke-width: 0.35"/>
     </g>
     <g id="line2d_2">
      <defs>
       <path id="mc3ae2a2053" d="M 0 0 
L 0 5 
" style="stroke: #000000; stroke-width: 0.8"/>
      </defs>
      <g>
       <use xlink:href="#mc3ae2a2053" x="110.766364" y="696.876719" style="stroke: #000000; stroke-width: 0.8"/>
      </g>
     </g>
     <g id="text_1">
      <!-- 2010 -->
      <g transform="translate(87.861364 723.553906)scale(0.18 -0.18)">
       <defs>
        <path id="DejaVuSans-32" d="M 1228 531 
L 3431 531 
L 3431 0 
L 469 0 
L 469 531 
Q 828 903 1448 1529 
Q 2069 2156 2228 2338 
Q 2531 2678 2651 2914 
Q 2772 3150 2772 3378 
Q 2772 3750 2511 3984 
Q 2250 4219 1831 4219 
Q 1534 4219 1204 4116 
Q 875 4013 500 3803 
L 500 4441 
Q 881 4594 1212 4672 
Q 1544 4750 1819 4750 
Q 2544 4750 2975 4387 
Q 3406 4025 3406 3419 
Q 3406 3131 3298 2873 
Q 3191 2616 2906 2266 
Q 2828 2175 2409 1742 
Q 1991 1309 1228 531 
z
" transform="scale(0.015625)"/>
        <path id="DejaVuSans-30" d="M 2034 4250 
Q 1547 4250 1301 3770 
Q 1056 3291 1056 2328 
Q 1056 1369 1301 889 
Q 1547 409 2034 409 
Q 2525 409 2770 889 
Q 3016 1369 3016 2328 
Q 3016 3291 2770 3770 
Q 2525 4250 2034 4250 
z
M 2034 4750 
Q 2819 4750 3233 4129 
Q 3647 3509 3647 2328 
Q 3647 1150 3233 529 
Q 2819 -91 2034 -91 
Q 1250 -91 836 529 
Q 422 1150 422 2328 
Q 422 3509 836 4129 
Q 1250 4750 2034 4750 
z
" transform="scale(0.015625)"/>
        <path id="DejaVuSans-31" d="M 794 531 
L 1825 531 
L 1825 4091 
L 703 3866 
L 703 4441 
L 1819 4666 
L 2450 4666 
L 2450 531 
L 3481 531 
L 3481 0 
L 794 0 
L 794 531 
z
" transform="scale(0.015625)"/>
       </defs>
       <use xlink:href="#DejaVuSans-32"/>
       <use xlink:href="#DejaVuSans-30" x="63.623047"/>
       <use xlink:href="#DejaVuSans-31" x="127.246094"/>
       <use xlink:href="#DejaVuSans-30" x="190.869141"/>
      </g>
     </g>
    </g>
    <g id="xtick_2">
     <g id="line2d_3">
      <path d="M 201.879091 696.876719 
L 201.879091 55.356719 
" clip-path="url(#p350937683d)" style="fill: none; stroke: #a5a5a5; stroke-width: 0.35"/>
     </g>
     <g id="line2d_4">
      <g>
       <use xlink:href="#mc3ae2a2053" x="201.879091" y="696.876719" style="stroke: #000000; stroke-width: 0.8"/>
      </g>
     </g>
     <g id="text_2">
      <!-- 2011 -->
      <g transform="translate(178.974091 723.553906)scale(0.18 -0.18)">
       <use xlink:href="#DejaVuSans-32"/>
       <use xlink:href="#DejaVuSans-30" x="63.623047"/>
       <use xlink:href="#DejaVuSans-31" x="127.246094"/>
       <use xlink:href="#DejaVuSans-31" x="190.869141"/>
      </g>
     </g>
    </g>
    <g id="xtick_3">
     <g id="line2d_5">
      <path d="M 292.991818 696.876719 
L 292.991818 55.356719 
" clip-path="url(#p350937683d)" style="fill: none; stroke: #a5a5a5; stroke-width: 0.35"/>
     </g>
     <g id="line2d_6">
      <g>
       <use xlink:href="#mc3ae2a2053" x="292.991818" y="696.876719" style="stroke: #000000; stroke-width: 0.8"/>
      </g>
     </g>
     <g id="text_3">
      <!-- 2012 -->
      <g transform="translate(270.086818 723.553906)scale(0.18 -0.18)">
       <use xlink:href="#DejaVuSans-32"/>
       <use xlink:href="#DejaVuSans-30" x="63.623047"/>
       <use xlink:href="#DejaVuSans-31" x="127.246094"/>
       <use xlink:href="#DejaVuSans-32" x="190.869141"/>
      </g>
     </g>
    </g>
    <g id="xtick_4">
     <g id="line2d_7">
      <path d="M 384.104545 696.876719 
L 384.104545 55.356719 
" clip-path="url(#p350937683d)" style="fill: none; stroke: #a5a5a5; stroke-width: 0.35"/>
     </g>
     <g id="line2d_8">
      <g>
       <use xlink:href="#mc3ae2a2053" x="384.104545" y="696.876719" style="stroke: #000000; stroke-width: 0.8"/>
      </g>
     </g>
     <g id="text_4">
      <!-- 2013 -->
      <g transform="translate(361.199545 723.553906)scale(0.18 -0.18)">
       <defs>
        <path id="DejaVuSans-33" d="M 2597 2516 
Q 3050 2419 3304 2112 
Q 3559 1806 3559 1356 
Q 3559 666 3084 287 
Q 2609 -91 1734 -91 
Q 1441 -91 1130 -33 
Q 819 25 488 141 
L 488 750 
Q 750 597 1062 519 
Q 1375 441 1716 441 
Q 2309 441 2620 675 
Q 2931 909 2931 1356 
Q 2931 1769 2642 2001 
Q 2353 2234 1838 2234 
L 1294 2234 
L 1294 2753 
L 1863 2753 
Q 2328 2753 2575 2939 
Q 2822 3125 2822 3475 
Q 2822 3834 2567 4026 
Q 2313 4219 1838 4219 
Q 1578 4219 1281 4162 
Q 984 4106 628 3988 
L 628 4550 
Q 988 4650 1302 4700 
Q 1616 4750 1894 4750 
Q 2613 4750 3031 4423 
Q 3450 4097 3450 3541 
Q 3450 3153 3228 2886 
Q 3006 2619 2597 2516 
z
" transform="scale(0.015625)"/>
       </defs>
       <use xlink:href="#DejaVuSans-32"/>
       <use xlink:href="#DejaVuSans-30" x="63.623047"/>
       <use xlink:href="#DejaVuSans-31" x="127.246094"/>
       <use xlink:href="#DejaVuSans-33" x="190.869141"/>
      </g>
     </g>
    </g>
    <g id="xtick_5">
     <g id="line2d_9">
      <path d="M 475.217273 696.876719 
L 475.217273 55.356719 
" clip-path="url(#p350937683d)" style="fill: none; stroke: #a5a5a5; stroke-width: 0.35"/>
     </g>
     <g id="line2d_10">
      <g>
       <use xlink:href="#mc3ae2a2053" x="475.217273" y="696.876719" style="stroke: #000000; stroke-width: 0.8"/>
      </g>
     </g>
     <g id="text_5">
      <!-- 2014 -->
      <g transform="translate(452.312273 723.553906)scale(0.18 -0.18)">
       <defs>
        <path id="DejaVuSans-34" d="M 2419 4116 
L 825 1625 
L 2419 1625 
L 2419 4116 
z
M 2253 4666 
L 3047 4666 
L 3047 1625 
L 3713 1625 
L 3713 1100 
L 3047 1100 
L 3047 0 
L 2419 0 
L 2419 1100 
L 313 1100 
L 313 1709 
L 2253 4666 
z
" transform="scale(0.015625)"/>
       </defs>
       <use xlink:href="#DejaVuSans-32"/>
       <use xlink:href="#DejaVuSans-30" x="63.623047"/>
       <use xlink:href="#DejaVuSans-31" x="127.246094"/>
       <use xlink:href="#DejaVuSans-34" x="190.869141"/>
      </g>
     </g>
    </g>
    <g id="xtick_6">
     <g id="line2d_11">
      <path d="M 566.33 696.876719 
L 566.33 55.356719 
" clip-path="url(#p350937683d)" style="fill: none; stroke: #a5a5a5; stroke-width: 0.35"/>
     </g>
     <g id="line2d_12">
      <g>
       <use xlink:href="#mc3ae2a2053" x="566.33" y="696.876719" style="stroke: #000000; stroke-width: 0.8"/>
      </g>
     </g>
     <g id="text_6">
      <!-- 2015 -->
      <g transform="translate(543.425 723.553906)scale(0.18 -0.18)">
       <defs>
        <path id="DejaVuSans-35" d="M 691 4666 
L 3169 4666 
L 3169 4134 
L 1269 4134 
L 1269 2991 
Q 1406 3038 1543 3061 
Q 1681 3084 1819 3084 
Q 2600 3084 3056 2656 
Q 3513 2228 3513 1497 
Q 3513 744 3044 326 
Q 2575 -91 1722 -91 
Q 1428 -91 1123 -41 
Q 819 9 494 109 
L 494 744 
Q 775 591 1075 516 
Q 1375 441 1709 441 
Q 2250 441 2565 725 
Q 2881 1009 2881 1497 
Q 2881 1984 2565 2268 
Q 2250 2553 1709 2553 
Q 1456 2553 1204 2497 
Q 953 2441 691 2322 
L 691 4666 
z
" transform="scale(0.015625)"/>
       </defs>
       <use xlink:href="#DejaVuSans-32"/>
       <use xlink:href="#DejaVuSans-30" x="63.623047"/>
       <use xlink:href="#DejaVuSans-31" x="127.246094"/>
       <use xlink:href="#DejaVuSans-35" x="190.869141"/>
      </g>
     </g>
    </g>
    <g id="xtick_7">
     <g id="line2d_13">
      <path d="M 657.442727 696.876719 
L 657.442727 55.356719 
" clip-path="url(#p350937683d)" style="fill: none; stroke: #a5a5a5; stroke-width: 0.35"/>
     </g>
     <g id="line2d_14">
      <g>
       <use xlink:href="#mc3ae2a2053" x="657.442727" y="696.876719" style="stroke: #000000; stroke-width: 0.8"/>
      </g>
     </g>
     <g id="text_7">
      <!-- 2016 -->
      <g transform="translate(634.537727 723.553906)scale(0.18 -0.18)">
       <defs>
        <path id="DejaVuSans-36" d="M 2113 2584 
Q 1688 2584 1439 2293 
Q 1191 2003 1191 1497 
Q 1191 994 1439 701 
Q 1688 409 2113 409 
Q 2538 409 2786 701 
Q 3034 994 3034 1497 
Q 3034 2003 2786 2293 
Q 2538 2584 2113 2584 
z
M 3366 4563 
L 3366 3988 
Q 3128 4100 2886 4159 
Q 2644 4219 2406 4219 
Q 1781 4219 1451 3797 
Q 1122 3375 1075 2522 
Q 1259 2794 1537 2939 
Q 1816 3084 2150 3084 
Q 2853 3084 3261 2657 
Q 3669 2231 3669 1497 
Q 3669 778 3244 343 
Q 2819 -91 2113 -91 
Q 1303 -91 875 529 
Q 447 1150 447 2328 
Q 447 3434 972 4092 
Q 1497 4750 2381 4750 
Q 2619 4750 2861 4703 
Q 3103 4656 3366 4563 
z
" transform="scale(0.015625)"/>
       </defs>
       <use xlink:href="#DejaVuSans-32"/>
       <use xlink:href="#DejaVuSans-30" x="63.623047"/>
       <use xlink:href="#DejaVuSans-31" x="127.246094"/>
       <use xlink:href="#DejaVuSans-36" x="190.869141"/>
      </g>
     </g>
    </g>
    <g id="xtick_8">
     <g id="line2d_15">
      <path d="M 748.555455 696.876719 
L 748.555455 55.356719 
" clip-path="url(#p350937683d)" style="fill: none; stroke: #a5a5a5; stroke-width: 0.35"/>
     </g>
     <g id="line2d_16">
      <g>
       <use xlink:href="#mc3ae2a2053" x="748.555455" y="696.876719" style="stroke: #000000; stroke-width: 0.8"/>
      </g>
     </g>
     <g id="text_8">
      <!-- 2017 -->
      <g transform="translate(725.650455 723.553906)scale(0.18 -0.18)">
       <defs>
        <path id="DejaVuSans-37" d="M 525 4666 
L 3525 4666 
L 3525 4397 
L 1831 0 
L 1172 0 
L 2766 4134 
L 525 4134 
L 525 4666 
z
" transform="scale(0.015625)"/>
       </defs>
       <use xlink:href="#DejaVuSans-32"/>
       <use xlink:href="#DejaVuSans-30" x="63.623047"/>
       <use xlink:href="#DejaVuSans-31" x="127.246094"/>
       <use xlink:href="#DejaVuSans-37" x="190.869141"/>
      </g>
     </g>
    </g>
    <g id="xtick_9">
     <g id="line2d_17">
      <path d="M 839.668182 696.876719 
L 839.668182 55.356719 
" clip-path="url(#p350937683d)" style="fill: none; stroke: #a5a5a5; stroke-width: 0.35"/>
     </g>
     <g id="line2d_18">
      <g>
       <use xlink:href="#mc3ae2a2053" x="839.668182" y="696.876719" style="stroke: #000000; stroke-width: 0.8"/>
      </g>
     </g>
     <g id="text_9">
      <!-- 2018 -->
      <g transform="translate(816.763182 723.553906)scale(0.18 -0.18)">
       <defs>
        <path id="DejaVuSans-38" d="M 2034 2216 
Q 1584 2216 1326 1975 
Q 1069 1734 1069 1313 
Q 1069 891 1326 650 
Q 1584 409 2034 409 
Q 2484 409 2743 651 
Q 3003 894 3003 1313 
Q 3003 1734 2745 1975 
Q 2488 2216 2034 2216 
z
M 1403 2484 
Q 997 2584 770 2862 
Q 544 3141 544 3541 
Q 544 4100 942 4425 
Q 1341 4750 2034 4750 
Q 2731 4750 3128 4425 
Q 3525 4100 3525 3541 
Q 3525 3141 3298 2862 
Q 3072 2584 2669 2484 
Q 3125 2378 3379 2068 
Q 3634 1759 3634 1313 
Q 3634 634 3220 271 
Q 2806 -91 2034 -91 
Q 1263 -91 848 271 
Q 434 634 434 1313 
Q 434 1759 690 2068 
Q 947 2378 1403 2484 
z
M 1172 3481 
Q 1172 3119 1398 2916 
Q 1625 2713 2034 2713 
Q 2441 2713 2670 2916 
Q 2900 3119 2900 3481 
Q 2900 3844 2670 4047 
Q 2441 4250 2034 4250 
Q 1625 4250 1398 4047 
Q 1172 3844 1172 3481 
z
" transform="scale(0.015625)"/>
       </defs>
       <use xlink:href="#DejaVuSans-32"/>
       <use xlink:href="#DejaVuSans-30" x="63.623047"/>
       <use xlink:href="#DejaVuSans-31" x="127.246094"/>
       <use xlink:href="#DejaVuSans-38" x="190.869141"/>
      </g>
     </g>
    </g>
    <g id="xtick_10">
     <g id="line2d_19">
      <path d="M 930.780909 696.876719 
L 930.780909 55.356719 
" clip-path="url(#p350937683d)" style="fill: none; stroke: #a5a5a5; stroke-width: 0.35"/>
     </g>
     <g id="line2d_20">
      <g>
       <use xlink:href="#mc3ae2a2053" x="930.780909" y="696.876719" style="stroke: #000000; stroke-width: 0.8"/>
      </g>
     </g>
     <g id="text_10">
      <!-- 2019 -->
      <g transform="translate(907.875909 723.553906)scale(0.18 -0.18)">
       <defs>
        <path id="DejaVuSans-39" d="M 703 97 
L 703 672 
Q 941 559 1184 500 
Q 1428 441 1663 441 
Q 2288 441 2617 861 
Q 2947 1281 2994 2138 
Q 2813 1869 2534 1725 
Q 2256 1581 1919 1581 
Q 1219 1581 811 2004 
Q 403 2428 403 3163 
Q 403 3881 828 4315 
Q 1253 4750 1959 4750 
Q 2769 4750 3195 4129 
Q 3622 3509 3622 2328 
Q 3622 1225 3098 567 
Q 2575 -91 1691 -91 
Q 1453 -91 1209 -44 
Q 966 3 703 97 
z
M 1959 2075 
Q 2384 2075 2632 2365 
Q 2881 2656 2881 3163 
Q 2881 3666 2632 3958 
Q 2384 4250 1959 4250 
Q 1534 4250 1286 3958 
Q 1038 3666 1038 3163 
Q 1038 2656 1286 2365 
Q 1534 2075 1959 2075 
z
" transform="scale(0.015625)"/>
       </defs>
       <use xlink:href="#DejaVuSans-32"/>
       <use xlink:href="#DejaVuSans-30" x="63.623047"/>
       <use xlink:href="#DejaVuSans-31" x="127.246094"/>
       <use xlink:href="#DejaVuSans-39" x="190.869141"/>
      </g>
     </g>
    </g>
    <g id="xtick_11">
     <g id="line2d_21">
      <path d="M 1021.893636 696.876719 
L 1021.893636 55.356719 
" clip-path="url(#p350937683d)" style="fill: none; stroke: #a5a5a5; stroke-width: 0.35"/>
     </g>
     <g id="line2d_22">
      <g>
       <use xlink:href="#mc3ae2a2053" x="1021.893636" y="696.876719" style="stroke: #000000; stroke-width: 0.8"/>
      </g>
     </g>
     <g id="text_11">
      <!-- 2020 -->
      <g transform="translate(998.988636 723.553906)scale(0.18 -0.18)">
       <use xlink:href="#DejaVuSans-32"/>
       <use xlink:href="#DejaVuSans-30" x="63.623047"/>
       <use xlink:href="#DejaVuSans-32" x="127.246094"/>
       <use xlink:href="#DejaVuSans-30" x="190.869141"/>
      </g>
     </g>
    </g>
   </g>
   <g id="matplotlib.axis_2">
    <g id="ytick_1">
     <g id="line2d_23">
      <path d="M 65.21 667.716719 
L 1067.45 667.716719 
" clip-path="url(#p350937683d)" style="fill: none; stroke: #a5a5a5; stroke-width: 0.35"/>
     </g>
     <g id="line2d_24"/>
     <g id="text_12">
      <!-- 0 -->
      <g transform="translate(48.7575 663.973281)scale(0.18 -0.18)">
       <use xlink:href="#DejaVuSans-30"/>
      </g>
     </g>
    </g>
    <g id="ytick_2">
     <g id="line2d_25">
      <path d="M 65.21 589.800887 
L 1067.45 589.800887 
" clip-path="url(#p350937683d)" style="fill: none; stroke: #a5a5a5; stroke-width: 0.35"/>
     </g>
     <g id="line2d_26"/>
     <g id="text_13">
      <!-- 200 -->
      <g transform="translate(25.8525 586.05745)scale(0.18 -0.18)">
       <use xlink:href="#DejaVuSans-32"/>
       <use xlink:href="#DejaVuSans-30" x="63.623047"/>
       <use xlink:href="#DejaVuSans-30" x="127.246094"/>
      </g>
     </g>
    </g>
    <g id="ytick_3">
     <g id="line2d_27">
      <path d="M 65.21 511.885055 
L 1067.45 511.885055 
" clip-path="url(#p350937683d)" style="fill: none; stroke: #a5a5a5; stroke-width: 0.35"/>
     </g>
     <g id="line2d_28"/>
     <g id="text_14">
      <!-- 400 -->
      <g transform="translate(25.8525 508.141618)scale(0.18 -0.18)">
       <use xlink:href="#DejaVuSans-34"/>
       <use xlink:href="#DejaVuSans-30" x="63.623047"/>
       <use xlink:href="#DejaVuSans-30" x="127.246094"/>
      </g>
     </g>
    </g>
    <g id="ytick_4">
     <g id="line2d_29">
      <path d="M 65.21 433.969224 
L 1067.45 433.969224 
" clip-path="url(#p350937683d)" style="fill: none; stroke: #a5a5a5; stroke-width: 0.35"/>
     </g>
     <g id="line2d_30"/>
     <g id="text_15">
      <!-- 600 -->
      <g transform="translate(25.8525 430.225786)scale(0.18 -0.18)">
       <use xlink:href="#DejaVuSans-36"/>
       <use xlink:href="#DejaVuSans-30" x="63.623047"/>
       <use xlink:href="#DejaVuSans-30" x="127.246094"/>
      </g>
     </g>
    </g>
    <g id="ytick_5">
     <g id="line2d_31">
      <path d="M 65.21 356.053392 
L 1067.45 356.053392 
" clip-path="url(#p350937683d)" style="fill: none; stroke: #a5a5a5; stroke-width: 0.35"/>
     </g>
     <g id="line2d_32"/>
     <g id="text_16">
      <!-- 800 -->
      <g transform="translate(25.8525 352.309955)scale(0.18 -0.18)">
       <use xlink:href="#DejaVuSans-38"/>
       <use xlink:href="#DejaVuSans-30" x="63.623047"/>
       <use xlink:href="#DejaVuSans-30" x="127.246094"/>
      </g>
     </g>
    </g>
    <g id="ytick_6">
     <g id="line2d_33">
      <path d="M 65.21 278.13756 
L 1067.45 278.13756 
" clip-path="url(#p350937683d)" style="fill: none; stroke: #a5a5a5; stroke-width: 0.35"/>
     </g>
     <g id="line2d_34"/>
     <g id="text_17">
      <!-- 1000 -->
      <g transform="translate(14.4 274.394123)scale(0.18 -0.18)">
       <use xlink:href="#DejaVuSans-31"/>
       <use xlink:href="#DejaVuSans-30" x="63.623047"/>
       <use xlink:href="#DejaVuSans-30" x="127.246094"/>
       <use xlink:href="#DejaVuSans-30" x="190.869141"/>
      </g>
     </g>
    </g>
    <g id="ytick_7">
     <g id="line2d_35">
      <path d="M 65.21 200.221729 
L 1067.45 200.221729 
" clip-path="url(#p350937683d)" style="fill: none; stroke: #a5a5a5; stroke-width: 0.35"/>
     </g>
     <g id="line2d_36"/>
     <g id="text_18">
      <!-- 1200 -->
      <g transform="translate(14.4 196.478291)scale(0.18 -0.18)">
       <use xlink:href="#DejaVuSans-31"/>
       <use xlink:href="#DejaVuSans-32" x="63.623047"/>
       <use xlink:href="#DejaVuSans-30" x="127.246094"/>
       <use xlink:href="#DejaVuSans-30" x="190.869141"/>
      </g>
     </g>
    </g>
    <g id="ytick_8">
     <g id="line2d_37">
      <path d="M 65.21 122.305897 
L 1067.45 122.305897 
" clip-path="url(#p350937683d)" style="fill: none; stroke: #a5a5a5; stroke-width: 0.35"/>
     </g>
     <g id="line2d_38"/>
     <g id="text_19">
      <!-- 1400 -->
      <g transform="translate(14.4 118.56246)scale(0.18 -0.18)">
       <use xlink:href="#DejaVuSans-31"/>
       <use xlink:href="#DejaVuSans-34" x="63.623047"/>
       <use xlink:href="#DejaVuSans-30" x="127.246094"/>
       <use xlink:href="#DejaVuSans-30" x="190.869141"/>
      </g>
     </g>
    </g>
   </g>
   <g id="line2d_39">
    <path d="M 110.766364 638.887861 
L 201.879091 618.629745 
L 292.991818 627.979645 
L 384.104545 571.880246 
L 475.217273 543.051388 
L 566.33 566.815717 
L 657.442727 578.113512 
L 748.555455 574.996879 
L 839.668182 561.361609 
L 930.780909 528.24738 
L 1021.893636 552.790867 
" clip-path="url(#p350937683d)" style="fill: none; stroke: #1879ce; stroke-width: 4"/>
   </g>
   <g id="line2d_40">
    <path d="M 110.766364 386.440566 
L 201.879091 372.805296 
L 292.991818 474.485456 
L 384.104545 320.601689 
L 475.217273 238.400486 
L 566.33 189.313512 
L 657.442727 137.889063 
L 748.555455 194.767621 
L 839.668182 113.345576 
L 930.780909 84.516719 
L 1021.893636 182.690667 
" clip-path="url(#p350937683d)" style="fill: none; stroke: #fc4f30; stroke-width: 4"/>
   </g>
   <g id="line2d_41">
    <path d="M 110.766364 667.716719 
L 201.879091 667.716719 
L 292.991818 667.716719 
L 384.104545 667.716719 
L 475.217273 667.32714 
L 566.33 667.716719 
L 657.442727 667.716719 
L 748.555455 667.716719 
L 839.668182 667.32714 
L 930.780909 667.716719 
L 1021.893636 667.716719 
" clip-path="url(#p350937683d)" style="fill: none; stroke: #d3d3d3; stroke-width: 3"/>
   </g>
   <g id="line2d_42">
    <path d="M 110.766364 648.62734 
L 201.879091 652.523132 
L 292.991818 660.704294 
L 384.104545 663.041769 
L 475.217273 663.431348 
L 566.33 664.210506 
L 657.442727 663.820927 
L 748.555455 666.547981 
L 839.668182 664.600085 
L 930.780909 664.210506 
L 1021.893636 663.820927 
" clip-path="url(#p350937683d)" style="fill: none; stroke: #d3d3d3; stroke-width: 3"/>
   </g>
   <g id="line2d_43">
    <path d="M 110.766364 667.716719 
L 201.879091 667.716719 
L 292.991818 667.32714 
L 384.104545 666.93756 
L 475.217273 666.93756 
L 566.33 666.547981 
L 657.442727 665.768823 
L 748.555455 665.379244 
L 839.668182 665.768823 
L 930.780909 664.989665 
L 1021.893636 666.93756 
" clip-path="url(#p350937683d)" style="fill: none; stroke: #d3d3d3; stroke-width: 3"/>
   </g>
   <g id="line2d_44">
    <path d="M 110.766364 667.716719 
L 201.879091 667.32714 
L 292.991818 667.716719 
L 384.104545 667.716719 
L 475.217273 666.93756 
L 566.33 666.547981 
L 657.442727 667.716719 
L 748.555455 667.716719 
L 839.668182 667.32714 
L 930.780909 667.716719 
L 1021.893636 666.93756 
" clip-path="url(#p350937683d)" style="fill: none; stroke: #d3d3d3; stroke-width: 3"/>
   </g>
   <g id="line2d_45">
    <path d="M 110.766364 667.716719 
L 201.879091 667.716719 
L 292.991818 667.716719 
L 384.104545 667.716719 
L 475.217273 666.93756 
L 566.33 667.716719 
L 657.442727 666.547981 
L 748.555455 666.158402 
L 839.668182 666.93756 
L 930.780909 667.716719 
L 1021.893636 667.32714 
" clip-path="url(#p350937683d)" style="fill: none; stroke: #d3d3d3; stroke-width: 3"/>
   </g>
   <g id="line2d_46">
    <path d="M 110.766364 667.716719 
L 201.879091 667.716719 
L 292.991818 667.716719 
L 384.104545 667.716719 
L 475.217273 667.716719 
L 566.33 667.716719 
L 657.442727 667.716719 
L 748.555455 667.716719 
L 839.668182 667.716719 
L 930.780909 667.716719 
L 1021.893636 667.716719 
" clip-path="url(#p350937683d)" style="fill: none; stroke: #d3d3d3; stroke-width: 3"/>
   </g>
   <g id="line2d_47">
    <path d="M 110.766364 667.716719 
L 201.879091 667.716719 
L 292.991818 667.716719 
L 384.104545 667.32714 
L 475.217273 667.32714 
L 566.33 667.32714 
L 657.442727 666.93756 
L 748.555455 666.93756 
L 839.668182 666.93756 
L 930.780909 666.158402 
L 1021.893636 667.716719 
" clip-path="url(#p350937683d)" style="fill: none; stroke: #d3d3d3; stroke-width: 3"/>
   </g>
   <g id="line2d_48">
    <path d="M 110.766364 667.716719 
L 201.879091 667.716719 
L 292.991818 667.716719 
L 384.104545 667.716719 
L 475.217273 667.716719 
L 566.33 667.716719 
L 657.442727 667.716719 
L 748.555455 667.716719 
L 839.668182 667.716719 
L 930.780909 667.716719 
L 1021.893636 667.716719 
" clip-path="url(#p350937683d)" style="fill: none; stroke: #d3d3d3; stroke-width: 3"/>
   </g>
   <g id="line2d_49">
    <path d="M 110.766364 667.716719 
L 201.879091 667.716719 
L 292.991818 667.716719 
L 384.104545 667.716719 
L 475.217273 667.716719 
L 566.33 667.716719 
L 657.442727 667.716719 
L 748.555455 667.716719 
L 839.668182 667.716719 
L 930.780909 667.716719 
L 1021.893636 667.716719 
" clip-path="url(#p350937683d)" style="fill: none; stroke: #d3d3d3; stroke-width: 3"/>
   </g>
   <g id="line2d_50">
    <path d="M 110.766364 667.716719 
L 201.879091 667.716719 
L 292.991818 667.716719 
L 384.104545 667.716719 
L 475.217273 667.716719 
L 566.33 667.716719 
L 657.442727 667.716719 
L 748.555455 667.716719 
L 839.668182 667.716719 
L 930.780909 667.716719 
L 1021.893636 667.716719 
" clip-path="url(#p350937683d)" style="fill: none; stroke: #d3d3d3; stroke-width: 3"/>
   </g>
   <g id="patch_3">
    <path d="M 65.21 696.876719 
L 1067.45 696.876719 
" style="fill: none; stroke: #000000; stroke-linejoin: miter; stroke-linecap: square"/>
   </g>
   <g id="text_20">
    <!-- Суды стали чаще приговаривать к минимальному сроку сроку по статье 132 УК РФ -->
    <g transform="translate(65.21 30.356719)scale(0.21 -0.21)">
     <defs>
      <path id="DejaVuSans-421" d="M 4122 4306 
L 4122 3641 
Q 3803 3938 3442 4084 
Q 3081 4231 2675 4231 
Q 1875 4231 1450 3742 
Q 1025 3253 1025 2328 
Q 1025 1406 1450 917 
Q 1875 428 2675 428 
Q 3081 428 3442 575 
Q 3803 722 4122 1019 
L 4122 359 
Q 3791 134 3420 21 
Q 3050 -91 2638 -91 
Q 1578 -91 968 557 
Q 359 1206 359 2328 
Q 359 3453 968 4101 
Q 1578 4750 2638 4750 
Q 3056 4750 3426 4639 
Q 3797 4528 4122 4306 
z
" transform="scale(0.015625)"/>
      <path id="DejaVuSans-443" d="M 2059 -325 
Q 1816 -950 1584 -1140 
Q 1353 -1331 966 -1331 
L 506 -1331 
L 506 -850 
L 844 -850 
Q 1081 -850 1212 -737 
Q 1344 -625 1503 -206 
L 1606 56 
L 191 3500 
L 800 3500 
L 1894 763 
L 2988 3500 
L 3597 3500 
L 2059 -325 
z
" transform="scale(0.015625)"/>
      <path id="DejaVuSans-434" d="M 1384 459 
L 3053 459 
L 3053 3041 
L 1844 3041 
L 1844 2603 
Q 1844 1316 1475 628 
L 1384 459 
z
M 550 459 
Q 834 584 959 850 
Q 1266 1509 1266 2838 
L 1266 3500 
L 3631 3500 
L 3631 459 
L 4091 459 
L 4091 -884 
L 3631 -884 
L 3631 0 
L 794 0 
L 794 -884 
L 334 -884 
L 334 459 
L 550 459 
z
" transform="scale(0.015625)"/>
      <path id="DejaVuSans-44b" d="M 3909 3500 
L 4484 3500 
L 4484 0 
L 3909 0 
L 3909 3500 
z
M 4197 3584 
L 4197 3584 
z
M 2781 1038 
Q 2781 1319 2576 1466 
Q 2372 1613 1978 1613 
L 1159 1613 
L 1159 459 
L 1978 459 
Q 2372 459 2576 607 
Q 2781 756 2781 1038 
z
M 581 3500 
L 1159 3500 
L 1159 2072 
L 2003 2072 
Q 2672 2072 3033 1817 
Q 3394 1563 3394 1038 
Q 3394 513 3033 256 
Q 2672 0 2003 0 
L 581 0 
L 581 3500 
z
" transform="scale(0.015625)"/>
      <path id="DejaVuSans-20" transform="scale(0.015625)"/>
      <path id="DejaVuSans-441" d="M 3122 3366 
L 3122 2828 
Q 2878 2963 2633 3030 
Q 2388 3097 2138 3097 
Q 1578 3097 1268 2742 
Q 959 2388 959 1747 
Q 959 1106 1268 751 
Q 1578 397 2138 397 
Q 2388 397 2633 464 
Q 2878 531 3122 666 
L 3122 134 
Q 2881 22 2623 -34 
Q 2366 -91 2075 -91 
Q 1284 -91 818 406 
Q 353 903 353 1747 
Q 353 2603 823 3093 
Q 1294 3584 2113 3584 
Q 2378 3584 2631 3529 
Q 2884 3475 3122 3366 
z
" transform="scale(0.015625)"/>
      <path id="DejaVuSans-442" d="M 188 3500 
L 3541 3500 
L 3541 3041 
L 2147 3041 
L 2147 0 
L 1581 0 
L 1581 3041 
L 188 3041 
L 188 3500 
z
" transform="scale(0.015625)"/>
      <path id="DejaVuSans-430" d="M 2194 1759 
Q 1497 1759 1228 1600 
Q 959 1441 959 1056 
Q 959 750 1161 570 
Q 1363 391 1709 391 
Q 2188 391 2477 730 
Q 2766 1069 2766 1631 
L 2766 1759 
L 2194 1759 
z
M 3341 1997 
L 3341 0 
L 2766 0 
L 2766 531 
Q 2569 213 2275 61 
Q 1981 -91 1556 -91 
Q 1019 -91 701 211 
Q 384 513 384 1019 
Q 384 1609 779 1909 
Q 1175 2209 1959 2209 
L 2766 2209 
L 2766 2266 
Q 2766 2663 2505 2880 
Q 2244 3097 1772 3097 
Q 1472 3097 1187 3025 
Q 903 2953 641 2809 
L 641 3341 
Q 956 3463 1253 3523 
Q 1550 3584 1831 3584 
Q 2591 3584 2966 3190 
Q 3341 2797 3341 1997 
z
" transform="scale(0.015625)"/>
      <path id="DejaVuSans-43b" d="M 238 0 
L 238 478 
Q 806 566 981 959 
Q 1194 1513 1194 2928 
L 1194 3500 
L 3559 3500 
L 3559 0 
L 2984 0 
L 2984 3041 
L 1769 3041 
L 1769 2694 
Q 1769 1344 1494 738 
Q 1200 91 238 0 
z
" transform="scale(0.015625)"/>
      <path id="DejaVuSans-438" d="M 3578 3500 
L 3578 0 
L 3006 0 
L 3006 2809 
L 1319 0 
L 581 0 
L 581 3500 
L 1153 3500 
L 1153 697 
L 2838 3500 
L 3578 3500 
z
" transform="scale(0.015625)"/>
      <path id="DejaVuSans-447" d="M 2625 0 
L 2625 1472 
L 1553 1472 
Q 1075 1472 756 1769 
Q 469 2038 469 2613 
L 469 3500 
L 1044 3500 
L 1044 2666 
Q 1044 2300 1206 2116 
Q 1372 1931 1697 1931 
L 2625 1931 
L 2625 3500 
L 3200 3500 
L 3200 0 
L 2625 0 
z
" transform="scale(0.015625)"/>
      <path id="DejaVuSans-449" d="M 5275 0 
L 581 0 
L 581 3500 
L 1159 3500 
L 1159 459 
L 2638 459 
L 2638 3500 
L 3216 3500 
L 3216 459 
L 4697 459 
L 4697 3500 
L 5275 3500 
L 5275 459 
L 5734 459 
L 5734 -884 
L 5275 -884 
L 5275 0 
z
" transform="scale(0.015625)"/>
      <path id="DejaVuSans-435" d="M 3597 1894 
L 3597 1613 
L 953 1613 
Q 991 1019 1311 708 
Q 1631 397 2203 397 
Q 2534 397 2845 478 
Q 3156 559 3463 722 
L 3463 178 
Q 3153 47 2828 -22 
Q 2503 -91 2169 -91 
Q 1331 -91 842 396 
Q 353 884 353 1716 
Q 353 2575 817 3079 
Q 1281 3584 2069 3584 
Q 2775 3584 3186 3129 
Q 3597 2675 3597 1894 
z
M 3022 2063 
Q 3016 2534 2758 2815 
Q 2500 3097 2075 3097 
Q 1594 3097 1305 2825 
Q 1016 2553 972 2059 
L 3022 2063 
z
" transform="scale(0.015625)"/>
      <path id="DejaVuSans-43f" d="M 3603 3500 
L 3603 0 
L 3025 0 
L 3025 3041 
L 1159 3041 
L 1159 0 
L 581 0 
L 581 3500 
L 3603 3500 
z
" transform="scale(0.015625)"/>
      <path id="DejaVuSans-440" d="M 1159 525 
L 1159 -1331 
L 581 -1331 
L 581 3500 
L 1159 3500 
L 1159 2969 
Q 1341 3281 1617 3432 
Q 1894 3584 2278 3584 
Q 2916 3584 3314 3078 
Q 3713 2572 3713 1747 
Q 3713 922 3314 415 
Q 2916 -91 2278 -91 
Q 1894 -91 1617 61 
Q 1341 213 1159 525 
z
M 3116 1747 
Q 3116 2381 2855 2742 
Q 2594 3103 2138 3103 
Q 1681 3103 1420 2742 
Q 1159 2381 1159 1747 
Q 1159 1113 1420 752 
Q 1681 391 2138 391 
Q 2594 391 2855 752 
Q 3116 1113 3116 1747 
z
" transform="scale(0.015625)"/>
      <path id="DejaVuSans-433" d="M 581 0 
L 581 3500 
L 3050 3500 
L 3050 3041 
L 1159 3041 
L 1159 0 
L 581 0 
z
" transform="scale(0.015625)"/>
      <path id="DejaVuSans-43e" d="M 1959 3097 
Q 1497 3097 1228 2736 
Q 959 2375 959 1747 
Q 959 1119 1226 758 
Q 1494 397 1959 397 
Q 2419 397 2687 759 
Q 2956 1122 2956 1747 
Q 2956 2369 2687 2733 
Q 2419 3097 1959 3097 
z
M 1959 3584 
Q 2709 3584 3137 3096 
Q 3566 2609 3566 1747 
Q 3566 888 3137 398 
Q 2709 -91 1959 -91 
Q 1206 -91 779 398 
Q 353 888 353 1747 
Q 353 2609 779 3096 
Q 1206 3584 1959 3584 
z
" transform="scale(0.015625)"/>
      <path id="DejaVuSans-432" d="M 1156 1613 
L 1156 459 
L 1975 459 
Q 2369 459 2575 607 
Q 2781 756 2781 1038 
Q 2781 1319 2575 1466 
Q 2369 1613 1975 1613 
L 1156 1613 
z
M 1156 3041 
L 1156 2072 
L 1913 2072 
Q 2238 2072 2444 2201 
Q 2650 2331 2650 2563 
Q 2650 2794 2444 2917 
Q 2238 3041 1913 3041 
L 1156 3041 
z
M 581 3500 
L 1950 3500 
Q 2566 3500 2897 3275 
Q 3228 3050 3228 2634 
Q 3228 2313 3059 2123 
Q 2891 1934 2559 1888 
Q 2956 1813 3175 1575 
Q 3394 1338 3394 981 
Q 3394 513 3033 256 
Q 2672 0 2003 0 
L 581 0 
L 581 3500 
z
" transform="scale(0.015625)"/>
      <path id="DejaVuSans-44c" d="M 2781 1038 
Q 2781 1319 2576 1466 
Q 2372 1613 1978 1613 
L 1159 1613 
L 1159 459 
L 1978 459 
Q 2372 459 2576 607 
Q 2781 756 2781 1038 
z
M 581 3500 
L 1159 3500 
L 1159 2072 
L 2003 2072 
Q 2672 2072 3033 1817 
Q 3394 1563 3394 1038 
Q 3394 513 3033 256 
Q 2672 0 2003 0 
L 581 0 
L 581 3500 
z
" transform="scale(0.015625)"/>
      <path id="DejaVuSans-43a" d="M 581 3500 
L 1153 3500 
L 1153 1856 
L 2775 3500 
L 3481 3500 
L 2144 2147 
L 3653 0 
L 3009 0 
L 1769 1766 
L 1153 1141 
L 1153 0 
L 581 0 
L 581 3500 
z
" transform="scale(0.015625)"/>
      <path id="DejaVuSans-43c" d="M 581 3500 
L 1422 3500 
L 2416 1156 
L 3413 3500 
L 4247 3500 
L 4247 0 
L 3669 0 
L 3669 2950 
L 2703 672 
L 2128 672 
L 1159 2950 
L 1159 0 
L 581 0 
L 581 3500 
z
" transform="scale(0.015625)"/>
      <path id="DejaVuSans-43d" d="M 581 3500 
L 1159 3500 
L 1159 2072 
L 3025 2072 
L 3025 3500 
L 3603 3500 
L 3603 0 
L 3025 0 
L 3025 1613 
L 1159 1613 
L 1159 0 
L 581 0 
L 581 3500 
z
" transform="scale(0.015625)"/>
      <path id="DejaVuSans-423" d="M 2047 566 
Q 1981 409 1881 291 
Q 1634 0 850 0 
L 609 0 
L 609 531 
L 806 531 
Q 1178 531 1322 616 
Q 1409 669 1466 800 
L 1606 1131 
L 109 4666 
L 788 4666 
L 1947 1928 
L 3113 4666 
L 3791 4666 
L 2047 566 
z
" transform="scale(0.015625)"/>
      <path id="DejaVuSans-41a" d="M 628 4666 
L 1259 4666 
L 1259 2359 
L 3516 4666 
L 4325 4666 
L 2522 2822 
L 4419 0 
L 3731 0 
L 2113 2403 
L 1259 1531 
L 1259 0 
L 628 0 
L 628 4666 
z
" transform="scale(0.015625)"/>
      <path id="DejaVuSans-420" d="M 1259 4147 
L 1259 2394 
L 2053 2394 
Q 2494 2394 2734 2622 
Q 2975 2850 2975 3272 
Q 2975 3691 2734 3919 
Q 2494 4147 2053 4147 
L 1259 4147 
z
M 628 4666 
L 2053 4666 
Q 2838 4666 3239 4311 
Q 3641 3956 3641 3272 
Q 3641 2581 3239 2228 
Q 2838 1875 2053 1875 
L 1259 1875 
L 1259 0 
L 628 0 
L 628 4666 
z
" transform="scale(0.015625)"/>
      <path id="DejaVuSans-424" d="M 2441 3706 
Q 1763 3644 1403 3325 
Q 1044 3006 1044 2391 
Q 1044 1775 1403 1458 
Q 1763 1141 2441 1078 
L 2441 3706 
z
M 3075 1078 
Q 3753 1141 4109 1458 
Q 4466 1775 4466 2391 
Q 4466 3006 4109 3325 
Q 3753 3644 3075 3706 
L 3075 1078 
z
M 2441 556 
Q 1450 628 914 1095 
Q 378 1563 378 2391 
Q 378 3219 914 3689 
Q 1450 4159 2441 4231 
L 2441 4666 
L 3075 4666 
L 3075 4231 
Q 4066 4159 4598 3692 
Q 5131 3225 5131 2391 
Q 5131 1563 4598 1095 
Q 4066 628 3075 556 
L 3075 0 
L 2441 0 
L 2441 556 
z
" transform="scale(0.015625)"/>
     </defs>
     <use xlink:href="#DejaVuSans-421"/>
     <use xlink:href="#DejaVuSans-443" x="69.824219"/>
     <use xlink:href="#DejaVuSans-434" x="129.003906"/>
     <use xlink:href="#DejaVuSans-44b" x="198.144531"/>
     <use xlink:href="#DejaVuSans-20" x="277.099609"/>
     <use xlink:href="#DejaVuSans-441" x="308.886719"/>
     <use xlink:href="#DejaVuSans-442" x="363.867188"/>
     <use xlink:href="#DejaVuSans-430" x="422.119141"/>
     <use xlink:href="#DejaVuSans-43b" x="483.398438"/>
     <use xlink:href="#DejaVuSans-438" x="547.314453"/>
     <use xlink:href="#DejaVuSans-20" x="612.304688"/>
     <use xlink:href="#DejaVuSans-447" x="644.091797"/>
     <use xlink:href="#DejaVuSans-430" x="703.173828"/>
     <use xlink:href="#DejaVuSans-449" x="764.453125"/>
     <use xlink:href="#DejaVuSans-435" x="858.642578"/>
     <use xlink:href="#DejaVuSans-20" x="920.166016"/>
     <use xlink:href="#DejaVuSans-43f" x="951.953125"/>
     <use xlink:href="#DejaVuSans-440" x="1017.333984"/>
     <use xlink:href="#DejaVuSans-438" x="1080.810547"/>
     <use xlink:href="#DejaVuSans-433" x="1145.800781"/>
     <use xlink:href="#DejaVuSans-43e" x="1198.339844"/>
     <use xlink:href="#DejaVuSans-432" x="1259.521484"/>
     <use xlink:href="#DejaVuSans-430" x="1318.457031"/>
     <use xlink:href="#DejaVuSans-440" x="1379.736328"/>
     <use xlink:href="#DejaVuSans-438" x="1443.212891"/>
     <use xlink:href="#DejaVuSans-432" x="1508.203125"/>
     <use xlink:href="#DejaVuSans-430" x="1567.138672"/>
     <use xlink:href="#DejaVuSans-442" x="1628.417969"/>
     <use xlink:href="#DejaVuSans-44c" x="1686.669922"/>
     <use xlink:href="#DejaVuSans-20" x="1745.605469"/>
     <use xlink:href="#DejaVuSans-43a" x="1777.392578"/>
     <use xlink:href="#DejaVuSans-20" x="1837.792969"/>
     <use xlink:href="#DejaVuSans-43c" x="1869.580078"/>
     <use xlink:href="#DejaVuSans-438" x="1945.019531"/>
     <use xlink:href="#DejaVuSans-43d" x="2010.009766"/>
     <use xlink:href="#DejaVuSans-438" x="2075.390625"/>
     <use xlink:href="#DejaVuSans-43c" x="2140.380859"/>
     <use xlink:href="#DejaVuSans-430" x="2215.820312"/>
     <use xlink:href="#DejaVuSans-43b" x="2277.099609"/>
     <use xlink:href="#DejaVuSans-44c" x="2341.015625"/>
     <use xlink:href="#DejaVuSans-43d" x="2399.951172"/>
     <use xlink:href="#DejaVuSans-43e" x="2465.332031"/>
     <use xlink:href="#DejaVuSans-43c" x="2526.513672"/>
     <use xlink:href="#DejaVuSans-443" x="2601.953125"/>
     <use xlink:href="#DejaVuSans-20" x="2661.132812"/>
     <use xlink:href="#DejaVuSans-441" x="2692.919922"/>
     <use xlink:href="#DejaVuSans-440" x="2747.900391"/>
     <use xlink:href="#DejaVuSans-43e" x="2811.376953"/>
     <use xlink:href="#DejaVuSans-43a" x="2872.558594"/>
     <use xlink:href="#DejaVuSans-443" x="2932.958984"/>
     <use xlink:href="#DejaVuSans-20" x="2992.138672"/>
     <use xlink:href="#DejaVuSans-441" x="3023.925781"/>
     <use xlink:href="#DejaVuSans-440" x="3078.90625"/>
     <use xlink:href="#DejaVuSans-43e" x="3142.382812"/>
     <use xlink:href="#DejaVuSans-43a" x="3203.564453"/>
     <use xlink:href="#DejaVuSans-443" x="3263.964844"/>
     <use xlink:href="#DejaVuSans-20" x="3323.144531"/>
     <use xlink:href="#DejaVuSans-43f" x="3354.931641"/>
     <use xlink:href="#DejaVuSans-43e" x="3420.3125"/>
     <use xlink:href="#DejaVuSans-20" x="3481.494141"/>
     <use xlink:href="#DejaVuSans-441" x="3513.28125"/>
     <use xlink:href="#DejaVuSans-442" x="3568.261719"/>
     <use xlink:href="#DejaVuSans-430" x="3626.513672"/>
     <use xlink:href="#DejaVuSans-442" x="3687.792969"/>
     <use xlink:href="#DejaVuSans-44c" x="3746.044922"/>
     <use xlink:href="#DejaVuSans-435" x="3804.980469"/>
     <use xlink:href="#DejaVuSans-20" x="3866.503906"/>
     <use xlink:href="#DejaVuSans-31" x="3898.291016"/>
     <use xlink:href="#DejaVuSans-33" x="3961.914062"/>
     <use xlink:href="#DejaVuSans-32" x="4025.537109"/>
     <use xlink:href="#DejaVuSans-20" x="4089.160156"/>
     <use xlink:href="#DejaVuSans-423" x="4120.947266"/>
     <use xlink:href="#DejaVuSans-41a" x="4181.884766"/>
     <use xlink:href="#DejaVuSans-20" x="4252.880859"/>
     <use xlink:href="#DejaVuSans-420" x="4284.667969"/>
     <use xlink:href="#DejaVuSans-424" x="4344.970703"/>
    </g>
   </g>
   <g id="legend_1">
    <g id="patch_4">
     <path d="M 77.81 149.018594 
L 466.07 149.018594 
Q 469.67 149.018594 469.67 145.418594 
L 469.67 67.956719 
Q 469.67 64.356719 466.07 64.356719 
L 77.81 64.356719 
Q 74.21 64.356719 74.21 67.956719 
L 74.21 145.418594 
Q 74.21 149.018594 77.81 149.018594 
z
" style="fill: #ffffff; opacity: 0.8; stroke: #cccccc; stroke-linejoin: miter"/>
    </g>
    <g id="line2d_51">
     <path d="M 81.41 78.933906 
L 99.41 78.933906 
L 117.41 78.933906 
" style="fill: none; stroke: #1879ce; stroke-width: 4"/>
    </g>
    <g id="text_21">
     <!-- Наказание ниже низжего предела -->
     <g transform="translate(131.81 85.233906)scale(0.18 -0.18)">
      <defs>
       <path id="DejaVuSans-41d" d="M 628 4666 
L 1259 4666 
L 1259 2753 
L 3553 2753 
L 3553 4666 
L 4184 4666 
L 4184 0 
L 3553 0 
L 3553 2222 
L 1259 2222 
L 1259 0 
L 628 0 
L 628 4666 
z
" transform="scale(0.015625)"/>
       <path id="DejaVuSans-437" d="M 2206 1888 
Q 2594 1813 2809 1584 
Q 3025 1356 3025 1019 
Q 3025 478 2622 193 
Q 2219 -91 1475 -91 
Q 1225 -91 961 -47 
Q 697 -3 416 84 
L 416 619 
Q 638 503 903 445 
Q 1169 388 1459 388 
Q 1931 388 2195 563 
Q 2459 738 2459 1019 
Q 2459 1294 2225 1461 
Q 1991 1628 1563 1628 
L 1100 1628 
L 1100 2103 
L 1584 2103 
Q 1947 2103 2158 2242 
Q 2369 2381 2369 2600 
Q 2369 2800 2151 2944 
Q 1934 3088 1563 3088 
Q 1341 3088 1089 3047 
Q 838 3006 534 2916 
L 534 3438 
Q 841 3513 1106 3550 
Q 1372 3588 1609 3588 
Q 2222 3588 2576 3342 
Q 2931 3097 2931 2656 
Q 2931 2366 2743 2164 
Q 2556 1963 2206 1888 
z
" transform="scale(0.015625)"/>
       <path id="DejaVuSans-436" d="M 2597 3500 
L 3169 3500 
L 3169 1856 
L 4697 3500 
L 5366 3500 
L 4109 2153 
L 5547 0 
L 4931 0 
L 3753 1769 
L 3169 1141 
L 3169 0 
L 2597 0 
L 2597 1141 
L 2013 1769 
L 834 0 
L 219 0 
L 1656 2153 
L 400 3500 
L 1069 3500 
L 2597 1856 
L 2597 3500 
z
" transform="scale(0.015625)"/>
      </defs>
      <use xlink:href="#DejaVuSans-41d"/>
      <use xlink:href="#DejaVuSans-430" x="75.195312"/>
      <use xlink:href="#DejaVuSans-43a" x="136.474609"/>
      <use xlink:href="#DejaVuSans-430" x="196.875"/>
      <use xlink:href="#DejaVuSans-437" x="258.154297"/>
      <use xlink:href="#DejaVuSans-430" x="311.328125"/>
      <use xlink:href="#DejaVuSans-43d" x="372.607422"/>
      <use xlink:href="#DejaVuSans-438" x="437.988281"/>
      <use xlink:href="#DejaVuSans-435" x="502.978516"/>
      <use xlink:href="#DejaVuSans-20" x="564.501953"/>
      <use xlink:href="#DejaVuSans-43d" x="596.289062"/>
      <use xlink:href="#DejaVuSans-438" x="661.669922"/>
      <use xlink:href="#DejaVuSans-436" x="726.660156"/>
      <use xlink:href="#DejaVuSans-435" x="816.748047"/>
      <use xlink:href="#DejaVuSans-20" x="878.271484"/>
      <use xlink:href="#DejaVuSans-43d" x="910.058594"/>
      <use xlink:href="#DejaVuSans-438" x="975.439453"/>
      <use xlink:href="#DejaVuSans-437" x="1040.429688"/>
      <use xlink:href="#DejaVuSans-436" x="1093.603516"/>
      <use xlink:href="#DejaVuSans-435" x="1183.691406"/>
      <use xlink:href="#DejaVuSans-433" x="1245.214844"/>
      <use xlink:href="#DejaVuSans-43e" x="1297.753906"/>
      <use xlink:href="#DejaVuSans-20" x="1358.935547"/>
      <use xlink:href="#DejaVuSans-43f" x="1390.722656"/>
      <use xlink:href="#DejaVuSans-440" x="1456.103516"/>
      <use xlink:href="#DejaVuSans-435" x="1519.580078"/>
      <use xlink:href="#DejaVuSans-434" x="1581.103516"/>
      <use xlink:href="#DejaVuSans-435" x="1650.244141"/>
      <use xlink:href="#DejaVuSans-43b" x="1711.767578"/>
      <use xlink:href="#DejaVuSans-430" x="1775.683594"/>
     </g>
    </g>
    <g id="line2d_52">
     <path d="M 81.41 105.354531 
L 99.41 105.354531 
L 117.41 105.354531 
" style="fill: none; stroke: #fc4f30; stroke-width: 4"/>
    </g>
    <g id="text_22">
     <!-- Лишение свободы -->
     <g transform="translate(131.81 111.654531)scale(0.18 -0.18)">
      <defs>
       <path id="DejaVuSans-41b" d="M 263 0 
L 263 531 
Q 941 678 1134 1191 
Q 1406 1997 1406 3872 
L 1406 4666 
L 4181 4666 
L 4181 0 
L 3550 0 
L 3550 4134 
L 2034 4134 
L 2034 3559 
Q 2034 1791 1716 966 
Q 1409 175 263 0 
z
" transform="scale(0.015625)"/>
       <path id="DejaVuSans-448" d="M 3216 459 
L 4697 459 
L 4697 3500 
L 5275 3500 
L 5275 0 
L 581 0 
L 581 3500 
L 1159 3500 
L 1159 459 
L 2638 459 
L 2638 3500 
L 3216 3500 
L 3216 459 
z
" transform="scale(0.015625)"/>
       <path id="DejaVuSans-431" d="M 1991 3584 
Q 2741 3584 3169 3096 
Q 3597 2609 3597 1747 
Q 3597 888 3169 398 
Q 2741 -91 1991 -91 
Q 1238 -91 822 384 
Q 406 859 384 1747 
L 366 2463 
Q 350 2834 350 2963 
Q 350 3463 531 3831 
Q 816 4409 1308 4659 
Q 1800 4909 2625 4916 
Q 3006 4919 3175 4972 
L 3334 4516 
Q 3181 4453 3041 4450 
L 2259 4397 
Q 1866 4369 1628 4231 
Q 1006 3866 947 3388 
L 925 3213 
Q 1331 3584 1991 3584 
z
M 1991 3097 
Q 1528 3097 1259 2736 
Q 991 2375 991 1747 
Q 991 1119 1258 758 
Q 1525 397 1991 397 
Q 2450 397 2719 759 
Q 2988 1122 2988 1747 
Q 2988 2369 2719 2733 
Q 2450 3097 1991 3097 
z
" transform="scale(0.015625)"/>
      </defs>
      <use xlink:href="#DejaVuSans-41b"/>
      <use xlink:href="#DejaVuSans-438" x="75.195312"/>
      <use xlink:href="#DejaVuSans-448" x="140.185547"/>
      <use xlink:href="#DejaVuSans-435" x="231.689453"/>
      <use xlink:href="#DejaVuSans-43d" x="293.212891"/>
      <use xlink:href="#DejaVuSans-438" x="358.59375"/>
      <use xlink:href="#DejaVuSans-435" x="423.583984"/>
      <use xlink:href="#DejaVuSans-20" x="485.107422"/>
      <use xlink:href="#DejaVuSans-441" x="516.894531"/>
      <use xlink:href="#DejaVuSans-432" x="571.875"/>
      <use xlink:href="#DejaVuSans-43e" x="630.810547"/>
      <use xlink:href="#DejaVuSans-431" x="691.992188"/>
      <use xlink:href="#DejaVuSans-43e" x="753.662109"/>
      <use xlink:href="#DejaVuSans-434" x="814.84375"/>
      <use xlink:href="#DejaVuSans-44b" x="883.984375"/>
     </g>
    </g>
    <g id="line2d_53">
     <path d="M 81.41 131.775156 
L 99.41 131.775156 
L 117.41 131.775156 
" style="fill: none; stroke: #d3d3d3; stroke-width: 3"/>
    </g>
    <g id="text_23">
     <!-- Другое наказание -->
     <g transform="translate(131.81 138.075156)scale(0.18 -0.18)">
      <defs>
       <path id="DejaVuSans-414" d="M 1459 531 
L 3522 531 
L 3522 4134 
L 2006 4134 
L 2006 3472 
Q 2006 1913 1656 878 
Q 1584 666 1459 531 
z
M 538 531 
Q 956 728 1075 1103 
Q 1378 2066 1378 3784 
L 1378 4666 
L 4153 4666 
L 4153 531 
L 4684 531 
L 4684 -1003 
L 4153 -1003 
L 4153 0 
L 847 0 
L 847 -1003 
L 316 -1003 
L 316 531 
L 538 531 
z
" transform="scale(0.015625)"/>
      </defs>
      <use xlink:href="#DejaVuSans-414"/>
      <use xlink:href="#DejaVuSans-440" x="78.125"/>
      <use xlink:href="#DejaVuSans-443" x="141.601562"/>
      <use xlink:href="#DejaVuSans-433" x="200.78125"/>
      <use xlink:href="#DejaVuSans-43e" x="253.320312"/>
      <use xlink:href="#DejaVuSans-435" x="314.501953"/>
      <use xlink:href="#DejaVuSans-20" x="376.025391"/>
      <use xlink:href="#DejaVuSans-43d" x="407.8125"/>
      <use xlink:href="#DejaVuSans-430" x="473.193359"/>
      <use xlink:href="#DejaVuSans-43a" x="534.472656"/>
      <use xlink:href="#DejaVuSans-430" x="594.873047"/>
      <use xlink:href="#DejaVuSans-437" x="656.152344"/>
      <use xlink:href="#DejaVuSans-430" x="709.326172"/>
      <use xlink:href="#DejaVuSans-43d" x="770.605469"/>
      <use xlink:href="#DejaVuSans-438" x="835.986328"/>
      <use xlink:href="#DejaVuSans-435" x="900.976562"/>
     </g>
    </g>
   </g>
  </g>
 </g>
 <defs>
  <clipPath id="p350937683d">
   <rect x="65.21" y="55.356719" width="1002.24" height="641.52"/>
  </clipPath>
 </defs>
</svg>
